<?xml version="1.0" standalone="no"?>
<!DOCTYPE svg PUBLIC "-//W3C//DTD SVG 1.1//EN" "http://www.w3.org/Graphics/SVG/1.1/DTD/svg11.dtd">
<svg width="800" height="600" version="1.1" xmlns="http://www.w3.org/2000/svg">
<rect width="800" height="600" x="0" y="0" style="fill:rgb(238,238,238);stroke:none"/>
<rect width="800" height="600" x="0" y="0" style="fill:rgb(255,255,255);stroke:none"/>
<text x="2" y="566" fill="rgb(0,0,0)" font-family="Arial" font-size="12">0</text>
<text x="2" y="514" fill="rgb(0,0,0)" font-family="Arial" font-size="12">10</text>
<text x="2" y="462" fill="rgb(0,0,0)" font-family="Arial" font-size="12">20</text>
<text x="2" y="410" fill="rgb(0,0,0)" font-family="Arial" font-size="12">30</text>
<text x="2" y="358" fill="rgb(0,0,0)" font-family="Arial" font-size="12">40</text>
<text x="2" y="306" fill="rgb(0,0,0)" font-family="Arial" font-size="12">50</text>
<text x="2" y="254" fill="rgb(0,0,0)" font-family="Arial" font-size="12">60</text>
<text x="2" y="202" fill="rgb(0,0,0)" font-family="Arial" font-size="12">70</text>
<text x="2" y="150" fill="rgb(0,0,0)" font-family="Arial" font-size="12">80</text>
<text x="2" y="98" fill="rgb(0,0,0)" font-family="Arial" font-size="12">90</text>
<text x="2" y="46" fill="rgb(0,0,0)" font-family="Arial" font-size="12">100</text>
<text x="378" y="30" fill="rgb(0,0,0)" font-family="Arial" font-size="12">% Adapter</text>
<line x1="29" y1="560" x2="790" y2="560" stroke="rgb(0,0,0)" stroke-width="1"/>
<line x1="29" y1="560" x2="29" y2="40" stroke="rgb(0,0,0)" stroke-width="1"/>
<text x="339" y="595" fill="rgb(0,0,0)" font-family="Arial" font-size="12">Position in read (bp)</text>
<text x="40" y="575" fill="rgb(0,0,0)" font-family="Arial" font-size="12">1</text>
<rect width="31" height="520" x="60" y="40" style="fill:rgb(230,230,230);stroke:none"/>
<text x="71" y="575" fill="rgb(0,0,0)" font-family="Arial" font-size="12">2</text>
<text x="102" y="575" fill="rgb(0,0,0)" font-family="Arial" font-size="12">3</text>
<rect width="31" height="520" x="122" y="40" style="fill:rgb(230,230,230);stroke:none"/>
<text x="133" y="575" fill="rgb(0,0,0)" font-family="Arial" font-size="12">4</text>
<text x="164" y="575" fill="rgb(0,0,0)" font-family="Arial" font-size="12">5</text>
<rect width="31" height="520" x="184" y="40" style="fill:rgb(230,230,230);stroke:none"/>
<text x="195" y="575" fill="rgb(0,0,0)" font-family="Arial" font-size="12">6</text>
<text x="226" y="575" fill="rgb(0,0,0)" font-family="Arial" font-size="12">7</text>
<rect width="31" height="520" x="246" y="40" style="fill:rgb(230,230,230);stroke:none"/>
<text x="257" y="575" fill="rgb(0,0,0)" font-family="Arial" font-size="12">8</text>
<text x="288" y="575" fill="rgb(0,0,0)" font-family="Arial" font-size="12">9</text>
<rect width="31" height="520" x="308" y="40" style="fill:rgb(230,230,230);stroke:none"/>
<text x="315" y="575" fill="rgb(0,0,0)" font-family="Arial" font-size="12">10</text>
<text x="346" y="575" fill="rgb(0,0,0)" font-family="Arial" font-size="12">11</text>
<rect width="31" height="520" x="370" y="40" style="fill:rgb(230,230,230);stroke:none"/>
<text x="377" y="575" fill="rgb(0,0,0)" font-family="Arial" font-size="12">12</text>
<text x="408" y="575" fill="rgb(0,0,0)" font-family="Arial" font-size="12">13</text>
<rect width="31" height="520" x="432" y="40" style="fill:rgb(230,230,230);stroke:none"/>
<text x="439" y="575" fill="rgb(0,0,0)" font-family="Arial" font-size="12">14</text>
<text x="470" y="575" fill="rgb(0,0,0)" font-family="Arial" font-size="12">15</text>
<rect width="31" height="520" x="494" y="40" style="fill:rgb(230,230,230);stroke:none"/>
<text x="501" y="575" fill="rgb(0,0,0)" font-family="Arial" font-size="12">16</text>
<text x="532" y="575" fill="rgb(0,0,0)" font-family="Arial" font-size="12">17</text>
<rect width="31" height="520" x="556" y="40" style="fill:rgb(230,230,230);stroke:none"/>
<text x="563" y="575" fill="rgb(0,0,0)" font-family="Arial" font-size="12">18</text>
<text x="594" y="575" fill="rgb(0,0,0)" font-family="Arial" font-size="12">19</text>
<rect width="31" height="520" x="618" y="40" style="fill:rgb(230,230,230);stroke:none"/>
<text x="625" y="575" fill="rgb(0,0,0)" font-family="Arial" font-size="12">20</text>
<text x="656" y="575" fill="rgb(0,0,0)" font-family="Arial" font-size="12">21</text>
<rect width="31" height="520" x="680" y="40" style="fill:rgb(230,230,230);stroke:none"/>
<text x="687" y="575" fill="rgb(0,0,0)" font-family="Arial" font-size="12">22</text>
<text x="718" y="575" fill="rgb(0,0,0)" font-family="Arial" font-size="12">23</text>
<rect width="31" height="520" x="742" y="40" style="fill:rgb(230,230,230);stroke:none"/>
<text x="749" y="575" fill="rgb(0,0,0)" font-family="Arial" font-size="12">24</text>
<line x1="29" y1="560" x2="790" y2="560" stroke="rgb(180,180,180)" stroke-width="1"/>
<line x1="29" y1="508" x2="790" y2="508" stroke="rgb(180,180,180)" stroke-width="1"/>
<line x1="29" y1="456" x2="790" y2="456" stroke="rgb(180,180,180)" stroke-width="1"/>
<line x1="29" y1="404" x2="790" y2="404" stroke="rgb(180,180,180)" stroke-width="1"/>
<line x1="29" y1="352" x2="790" y2="352" stroke="rgb(180,180,180)" stroke-width="1"/>
<line x1="29" y1="300" x2="790" y2="300" stroke="rgb(180,180,180)" stroke-width="1"/>
<line x1="29" y1="248" x2="790" y2="248" stroke="rgb(180,180,180)" stroke-width="1"/>
<line x1="29" y1="196" x2="790" y2="196" stroke="rgb(180,180,180)" stroke-width="1"/>
<line x1="29" y1="144" x2="790" y2="144" stroke="rgb(180,180,180)" stroke-width="1"/>
<line x1="29" y1="92" x2="790" y2="92" stroke="rgb(180,180,180)" stroke-width="1"/>
<line x1="29" y1="40" x2="790" y2="40" stroke="rgb(180,180,180)" stroke-width="1"/>
<line x1="44" y1="560" x2="75" y2="560" stroke="rgb(136,34,85)" stroke-width="1"/>
<line x1="75" y1="560" x2="106" y2="560" stroke="rgb(136,34,85)" stroke-width="1"/>
<line x1="106" y1="560" x2="137" y2="560" stroke="rgb(136,34,85)" stroke-width="1"/>
<line x1="137" y1="560" x2="168" y2="560" stroke="rgb(136,34,85)" stroke-width="1"/>
<line x1="168" y1="560" x2="199" y2="560" stroke="rgb(136,34,85)" stroke-width="1"/>
<line x1="199" y1="560" x2="230" y2="560" stroke="rgb(136,34,85)" stroke-width="1"/>
<line x1="230" y1="560" x2="261" y2="560" stroke="rgb(136,34,85)" stroke-width="1"/>
<line x1="261" y1="560" x2="292" y2="560" stroke="rgb(136,34,85)" stroke-width="1"/>
<line x1="292" y1="560" x2="323" y2="560" stroke="rgb(136,34,85)" stroke-width="1"/>
<line x1="323" y1="560" x2="354" y2="560" stroke="rgb(136,34,85)" stroke-width="1"/>
<line x1="354" y1="560" x2="385" y2="560" stroke="rgb(136,34,85)" stroke-width="1"/>
<line x1="385" y1="560" x2="416" y2="560" stroke="rgb(136,34,85)" stroke-width="1"/>
<line x1="416" y1="560" x2="447" y2="560" stroke="rgb(136,34,85)" stroke-width="1"/>
<line x1="447" y1="560" x2="478" y2="560" stroke="rgb(136,34,85)" stroke-width="1"/>
<line x1="478" y1="560" x2="509" y2="560" stroke="rgb(136,34,85)" stroke-width="1"/>
<line x1="509" y1="560" x2="540" y2="560" stroke="rgb(136,34,85)" stroke-width="1"/>
<line x1="540" y1="560" x2="571" y2="560" stroke="rgb(136,34,85)" stroke-width="1"/>
<line x1="571" y1="560" x2="602" y2="560" stroke="rgb(136,34,85)" stroke-width="1"/>
<line x1="602" y1="560" x2="633" y2="560" stroke="rgb(136,34,85)" stroke-width="1"/>
<line x1="633" y1="560" x2="664" y2="560" stroke="rgb(136,34,85)" stroke-width="1"/>
<line x1="664" y1="560" x2="695" y2="560" stroke="rgb(136,34,85)" stroke-width="1"/>
<line x1="695" y1="560" x2="726" y2="560" stroke="rgb(136,34,85)" stroke-width="1"/>
<line x1="726" y1="560" x2="757" y2="560" stroke="rgb(136,34,85)" stroke-width="1"/>
<line x1="44" y1="560" x2="75" y2="560" stroke="rgb(51,34,136)" stroke-width="1"/>
<line x1="75" y1="560" x2="106" y2="560" stroke="rgb(51,34,136)" stroke-width="1"/>
<line x1="106" y1="560" x2="137" y2="560" stroke="rgb(51,34,136)" stroke-width="1"/>
<line x1="137" y1="560" x2="168" y2="560" stroke="rgb(51,34,136)" stroke-width="1"/>
<line x1="168" y1="560" x2="199" y2="560" stroke="rgb(51,34,136)" stroke-width="1"/>
<line x1="199" y1="560" x2="230" y2="560" stroke="rgb(51,34,136)" stroke-width="1"/>
<line x1="230" y1="560" x2="261" y2="560" stroke="rgb(51,34,136)" stroke-width="1"/>
<line x1="261" y1="560" x2="292" y2="560" stroke="rgb(51,34,136)" stroke-width="1"/>
<line x1="292" y1="560" x2="323" y2="560" stroke="rgb(51,34,136)" stroke-width="1"/>
<line x1="323" y1="560" x2="354" y2="560" stroke="rgb(51,34,136)" stroke-width="1"/>
<line x1="354" y1="560" x2="385" y2="560" stroke="rgb(51,34,136)" stroke-width="1"/>
<line x1="385" y1="560" x2="416" y2="560" stroke="rgb(51,34,136)" stroke-width="1"/>
<line x1="416" y1="560" x2="447" y2="560" stroke="rgb(51,34,136)" stroke-width="1"/>
<line x1="447" y1="560" x2="478" y2="560" stroke="rgb(51,34,136)" stroke-width="1"/>
<line x1="478" y1="560" x2="509" y2="560" stroke="rgb(51,34,136)" stroke-width="1"/>
<line x1="509" y1="560" x2="540" y2="560" stroke="rgb(51,34,136)" stroke-width="1"/>
<line x1="540" y1="560" x2="571" y2="560" stroke="rgb(51,34,136)" stroke-width="1"/>
<line x1="571" y1="560" x2="602" y2="560" stroke="rgb(51,34,136)" stroke-width="1"/>
<line x1="602" y1="560" x2="633" y2="560" stroke="rgb(51,34,136)" stroke-width="1"/>
<line x1="633" y1="560" x2="664" y2="560" stroke="rgb(51,34,136)" stroke-width="1"/>
<line x1="664" y1="560" x2="695" y2="560" stroke="rgb(51,34,136)" stroke-width="1"/>
<line x1="695" y1="560" x2="726" y2="560" stroke="rgb(51,34,136)" stroke-width="1"/>
<line x1="726" y1="560" x2="757" y2="560" stroke="rgb(51,34,136)" stroke-width="1"/>
<line x1="44" y1="560" x2="75" y2="560" stroke="rgb(17,119,51)" stroke-width="1"/>
<line x1="75" y1="560" x2="106" y2="560" stroke="rgb(17,119,51)" stroke-width="1"/>
<line x1="106" y1="560" x2="137" y2="560" stroke="rgb(17,119,51)" stroke-width="1"/>
<line x1="137" y1="560" x2="168" y2="560" stroke="rgb(17,119,51)" stroke-width="1"/>
<line x1="168" y1="560" x2="199" y2="560" stroke="rgb(17,119,51)" stroke-width="1"/>
<line x1="199" y1="560" x2="230" y2="560" stroke="rgb(17,119,51)" stroke-width="1"/>
<line x1="230" y1="560" x2="261" y2="560" stroke="rgb(17,119,51)" stroke-width="1"/>
<line x1="261" y1="560" x2="292" y2="560" stroke="rgb(17,119,51)" stroke-width="1"/>
<line x1="292" y1="560" x2="323" y2="560" stroke="rgb(17,119,51)" stroke-width="1"/>
<line x1="323" y1="560" x2="354" y2="560" stroke="rgb(17,119,51)" stroke-width="1"/>
<line x1="354" y1="560" x2="385" y2="560" stroke="rgb(17,119,51)" stroke-width="1"/>
<line x1="385" y1="560" x2="416" y2="560" stroke="rgb(17,119,51)" stroke-width="1"/>
<line x1="416" y1="560" x2="447" y2="560" stroke="rgb(17,119,51)" stroke-width="1"/>
<line x1="447" y1="560" x2="478" y2="560" stroke="rgb(17,119,51)" stroke-width="1"/>
<line x1="478" y1="560" x2="509" y2="560" stroke="rgb(17,119,51)" stroke-width="1"/>
<line x1="509" y1="560" x2="540" y2="560" stroke="rgb(17,119,51)" stroke-width="1"/>
<line x1="540" y1="560" x2="571" y2="560" stroke="rgb(17,119,51)" stroke-width="1"/>
<line x1="571" y1="560" x2="602" y2="560" stroke="rgb(17,119,51)" stroke-width="1"/>
<line x1="602" y1="560" x2="633" y2="560" stroke="rgb(17,119,51)" stroke-width="1"/>
<line x1="633" y1="560" x2="664" y2="560" stroke="rgb(17,119,51)" stroke-width="1"/>
<line x1="664" y1="560" x2="695" y2="560" stroke="rgb(17,119,51)" stroke-width="1"/>
<line x1="695" y1="560" x2="726" y2="560" stroke="rgb(17,119,51)" stroke-width="1"/>
<line x1="726" y1="560" x2="757" y2="560" stroke="rgb(17,119,51)" stroke-width="1"/>
<line x1="44" y1="560" x2="75" y2="560" stroke="rgb(221,204,119)" stroke-width="1"/>
<line x1="75" y1="560" x2="106" y2="560" stroke="rgb(221,204,119)" stroke-width="1"/>
<line x1="106" y1="560" x2="137" y2="560" stroke="rgb(221,204,119)" stroke-width="1"/>
<line x1="137" y1="560" x2="168" y2="560" stroke="rgb(221,204,119)" stroke-width="1"/>
<line x1="168" y1="560" x2="199" y2="560" stroke="rgb(221,204,119)" stroke-width="1"/>
<line x1="199" y1="560" x2="230" y2="560" stroke="rgb(221,204,119)" stroke-width="1"/>
<line x1="230" y1="560" x2="261" y2="560" stroke="rgb(221,204,119)" stroke-width="1"/>
<line x1="261" y1="560" x2="292" y2="560" stroke="rgb(221,204,119)" stroke-width="1"/>
<line x1="292" y1="560" x2="323" y2="560" stroke="rgb(221,204,119)" stroke-width="1"/>
<line x1="323" y1="560" x2="354" y2="560" stroke="rgb(221,204,119)" stroke-width="1"/>
<line x1="354" y1="560" x2="385" y2="560" stroke="rgb(221,204,119)" stroke-width="1"/>
<line x1="385" y1="560" x2="416" y2="560" stroke="rgb(221,204,119)" stroke-width="1"/>
<line x1="416" y1="560" x2="447" y2="560" stroke="rgb(221,204,119)" stroke-width="1"/>
<line x1="447" y1="560" x2="478" y2="560" stroke="rgb(221,204,119)" stroke-width="1"/>
<line x1="478" y1="560" x2="509" y2="560" stroke="rgb(221,204,119)" stroke-width="1"/>
<line x1="509" y1="560" x2="540" y2="560" stroke="rgb(221,204,119)" stroke-width="1"/>
<line x1="540" y1="560" x2="571" y2="560" stroke="rgb(221,204,119)" stroke-width="1"/>
<line x1="571" y1="560" x2="602" y2="560" stroke="rgb(221,204,119)" stroke-width="1"/>
<line x1="602" y1="560" x2="633" y2="560" stroke="rgb(221,204,119)" stroke-width="1"/>
<line x1="633" y1="560" x2="664" y2="560" stroke="rgb(221,204,119)" stroke-width="1"/>
<line x1="664" y1="560" x2="695" y2="560" stroke="rgb(221,204,119)" stroke-width="1"/>
<line x1="695" y1="560" x2="726" y2="560" stroke="rgb(221,204,119)" stroke-width="1"/>
<line x1="726" y1="560" x2="757" y2="560" stroke="rgb(221,204,119)" stroke-width="1"/>
<line x1="44" y1="560" x2="75" y2="560" stroke="rgb(68,170,153)" stroke-width="1"/>
<line x1="75" y1="560" x2="106" y2="560" stroke="rgb(68,170,153)" stroke-width="1"/>
<line x1="106" y1="560" x2="137" y2="560" stroke="rgb(68,170,153)" stroke-width="1"/>
<line x1="137" y1="560" x2="168" y2="560" stroke="rgb(68,170,153)" stroke-width="1"/>
<line x1="168" y1="560" x2="199" y2="552" stroke="rgb(68,170,153)" stroke-width="1"/>
<line x1="199" y1="552" x2="230" y2="552" stroke="rgb(68,170,153)" stroke-width="1"/>
<line x1="230" y1="552" x2="261" y2="548" stroke="rgb(68,170,153)" stroke-width="1"/>
<line x1="261" y1="548" x2="292" y2="544" stroke="rgb(68,170,153)" stroke-width="1"/>
<line x1="292" y1="544" x2="323" y2="544" stroke="rgb(68,170,153)" stroke-width="1"/>
<line x1="323" y1="544" x2="354" y2="544" stroke="rgb(68,170,153)" stroke-width="1"/>
<line x1="354" y1="544" x2="385" y2="544" stroke="rgb(68,170,153)" stroke-width="1"/>
<line x1="385" y1="544" x2="416" y2="544" stroke="rgb(68,170,153)" stroke-width="1"/>
<line x1="416" y1="544" x2="447" y2="544" stroke="rgb(68,170,153)" stroke-width="1"/>
<line x1="447" y1="544" x2="478" y2="544" stroke="rgb(68,170,153)" stroke-width="1"/>
<line x1="478" y1="544" x2="509" y2="544" stroke="rgb(68,170,153)" stroke-width="1"/>
<line x1="509" y1="544" x2="540" y2="544" stroke="rgb(68,170,153)" stroke-width="1"/>
<line x1="540" y1="544" x2="571" y2="544" stroke="rgb(68,170,153)" stroke-width="1"/>
<line x1="571" y1="544" x2="602" y2="544" stroke="rgb(68,170,153)" stroke-width="1"/>
<line x1="602" y1="544" x2="633" y2="544" stroke="rgb(68,170,153)" stroke-width="1"/>
<line x1="633" y1="544" x2="664" y2="544" stroke="rgb(68,170,153)" stroke-width="1"/>
<line x1="664" y1="544" x2="695" y2="544" stroke="rgb(68,170,153)" stroke-width="1"/>
<line x1="695" y1="544" x2="726" y2="544" stroke="rgb(68,170,153)" stroke-width="1"/>
<line x1="726" y1="544" x2="757" y2="544" stroke="rgb(68,170,153)" stroke-width="1"/>
<line x1="44" y1="560" x2="75" y2="560" stroke="rgb(170,68,153)" stroke-width="1"/>
<line x1="75" y1="560" x2="106" y2="560" stroke="rgb(170,68,153)" stroke-width="1"/>
<line x1="106" y1="560" x2="137" y2="560" stroke="rgb(170,68,153)" stroke-width="1"/>
<line x1="137" y1="560" x2="168" y2="560" stroke="rgb(170,68,153)" stroke-width="1"/>
<line x1="168" y1="560" x2="199" y2="560" stroke="rgb(170,68,153)" stroke-width="1"/>
<line x1="199" y1="560" x2="230" y2="560" stroke="rgb(170,68,153)" stroke-width="1"/>
<line x1="230" y1="560" x2="261" y2="560" stroke="rgb(170,68,153)" stroke-width="1"/>
<line x1="261" y1="560" x2="292" y2="560" stroke="rgb(170,68,153)" stroke-width="1"/>
<line x1="292" y1="560" x2="323" y2="560" stroke="rgb(170,68,153)" stroke-width="1"/>
<line x1="323" y1="560" x2="354" y2="560" stroke="rgb(170,68,153)" stroke-width="1"/>
<line x1="354" y1="560" x2="385" y2="560" stroke="rgb(170,68,153)" stroke-width="1"/>
<line x1="385" y1="560" x2="416" y2="560" stroke="rgb(170,68,153)" stroke-width="1"/>
<line x1="416" y1="560" x2="447" y2="560" stroke="rgb(170,68,153)" stroke-width="1"/>
<line x1="447" y1="560" x2="478" y2="560" stroke="rgb(170,68,153)" stroke-width="1"/>
<line x1="478" y1="560" x2="509" y2="560" stroke="rgb(170,68,153)" stroke-width="1"/>
<line x1="509" y1="560" x2="540" y2="560" stroke="rgb(170,68,153)" stroke-width="1"/>
<line x1="540" y1="560" x2="571" y2="560" stroke="rgb(170,68,153)" stroke-width="1"/>
<line x1="571" y1="560" x2="602" y2="560" stroke="rgb(170,68,153)" stroke-width="1"/>
<line x1="602" y1="560" x2="633" y2="560" stroke="rgb(170,68,153)" stroke-width="1"/>
<line x1="633" y1="560" x2="664" y2="560" stroke="rgb(170,68,153)" stroke-width="1"/>
<line x1="664" y1="560" x2="695" y2="560" stroke="rgb(170,68,153)" stroke-width="1"/>
<line x1="695" y1="560" x2="726" y2="560" stroke="rgb(170,68,153)" stroke-width="1"/>
<line x1="726" y1="560" x2="757" y2="560" stroke="rgb(170,68,153)" stroke-width="1"/>
<rect width="220" height="123" x="570" y="40" style="fill:rgb(255,255,255);stroke:none"/>
<rect width="220" height="123" x="570" y="40" rx="0" ry="0" style="fill:none;stroke-width:1;stroke:rgb(192,192,192)"/>
<text x="573" y="55" fill="rgb(136,34,85)" font-family="Arial" font-size="12" font-weight="bold">Illumina Universal Adapter</text>
<text x="573" y="75" fill="rgb(51,34,136)" font-family="Arial" font-size="12" font-weight="bold">Illumina Small RNA 3' Adapter</text>
<text x="573" y="95" fill="rgb(17,119,51)" font-family="Arial" font-size="12" font-weight="bold">Illumina Small RNA 5' Adapter</text>
<text x="573" y="115" fill="rgb(221,204,119)" font-family="Arial" font-size="12" font-weight="bold">Nextera Transposase Sequence</text>
<text x="573" y="135" fill="rgb(68,170,153)" font-family="Arial" font-size="12" font-weight="bold">PolyA</text>
<text x="573" y="155" fill="rgb(170,68,153)" font-family="Arial" font-size="12" font-weight="bold">PolyG</text>
</svg>
