<?xml version="1.0" standalone="no"?>
<!DOCTYPE svg PUBLIC "-//W3C//DTD SVG 1.1//EN" "http://www.w3.org/Graphics/SVG/1.1/DTD/svg11.dtd">
<svg width="800" height="600" version="1.1" xmlns="http://www.w3.org/2000/svg">
<rect width="800" height="600" x="0" y="0" style="fill:rgb(238,238,238);stroke:none"/>
<rect width="800" height="600" x="0" y="0" style="fill:rgb(255,255,255);stroke:none"/>
<text x="2" y="566" fill="rgb(0,0,0)" font-family="Arial" font-size="12">0</text>
<text x="2" y="514" fill="rgb(0,0,0)" font-family="Arial" font-size="12">10</text>
<text x="2" y="462" fill="rgb(0,0,0)" font-family="Arial" font-size="12">20</text>
<text x="2" y="410" fill="rgb(0,0,0)" font-family="Arial" font-size="12">30</text>
<text x="2" y="358" fill="rgb(0,0,0)" font-family="Arial" font-size="12">40</text>
<text x="2" y="306" fill="rgb(0,0,0)" font-family="Arial" font-size="12">50</text>
<text x="2" y="254" fill="rgb(0,0,0)" font-family="Arial" font-size="12">60</text>
<text x="2" y="202" fill="rgb(0,0,0)" font-family="Arial" font-size="12">70</text>
<text x="2" y="150" fill="rgb(0,0,0)" font-family="Arial" font-size="12">80</text>
<text x="2" y="98" fill="rgb(0,0,0)" font-family="Arial" font-size="12">90</text>
<text x="2" y="46" fill="rgb(0,0,0)" font-family="Arial" font-size="12">100</text>
<text x="305" y="30" fill="rgb(0,0,0)" font-family="Arial" font-size="12">Sequence content across all bases</text>
<line x1="29" y1="560" x2="790" y2="560" stroke="rgb(0,0,0)" stroke-width="1"/>
<line x1="29" y1="560" x2="29" y2="40" stroke="rgb(0,0,0)" stroke-width="1"/>
<text x="339" y="595" fill="rgb(0,0,0)" font-family="Arial" font-size="12">Position in read (bp)</text>
<text x="35" y="575" fill="rgb(0,0,0)" font-family="Arial" font-size="12">1</text>
<rect width="21" height="520" x="50" y="40" style="fill:rgb(230,230,230);stroke:none"/>
<text x="56" y="575" fill="rgb(0,0,0)" font-family="Arial" font-size="12">2</text>
<text x="77" y="575" fill="rgb(0,0,0)" font-family="Arial" font-size="12">3</text>
<rect width="21" height="520" x="92" y="40" style="fill:rgb(230,230,230);stroke:none"/>
<text x="98" y="575" fill="rgb(0,0,0)" font-family="Arial" font-size="12">4</text>
<text x="119" y="575" fill="rgb(0,0,0)" font-family="Arial" font-size="12">5</text>
<rect width="21" height="520" x="134" y="40" style="fill:rgb(230,230,230);stroke:none"/>
<text x="140" y="575" fill="rgb(0,0,0)" font-family="Arial" font-size="12">6</text>
<text x="161" y="575" fill="rgb(0,0,0)" font-family="Arial" font-size="12">7</text>
<rect width="21" height="520" x="176" y="40" style="fill:rgb(230,230,230);stroke:none"/>
<text x="182" y="575" fill="rgb(0,0,0)" font-family="Arial" font-size="12">8</text>
<text x="203" y="575" fill="rgb(0,0,0)" font-family="Arial" font-size="12">9</text>
<rect width="21" height="520" x="218" y="40" style="fill:rgb(230,230,230);stroke:none"/>
<text x="220" y="575" fill="rgb(0,0,0)" font-family="Arial" font-size="12">10</text>
<rect width="21" height="520" x="260" y="40" style="fill:rgb(230,230,230);stroke:none"/>
<text x="262" y="575" fill="rgb(0,0,0)" font-family="Arial" font-size="12">12</text>
<rect width="21" height="520" x="302" y="40" style="fill:rgb(230,230,230);stroke:none"/>
<text x="304" y="575" fill="rgb(0,0,0)" font-family="Arial" font-size="12">14</text>
<rect width="21" height="520" x="344" y="40" style="fill:rgb(230,230,230);stroke:none"/>
<text x="346" y="575" fill="rgb(0,0,0)" font-family="Arial" font-size="12">16</text>
<rect width="21" height="520" x="386" y="40" style="fill:rgb(230,230,230);stroke:none"/>
<text x="388" y="575" fill="rgb(0,0,0)" font-family="Arial" font-size="12">18</text>
<rect width="21" height="520" x="428" y="40" style="fill:rgb(230,230,230);stroke:none"/>
<text x="430" y="575" fill="rgb(0,0,0)" font-family="Arial" font-size="12">20</text>
<rect width="21" height="520" x="470" y="40" style="fill:rgb(230,230,230);stroke:none"/>
<text x="472" y="575" fill="rgb(0,0,0)" font-family="Arial" font-size="12">22</text>
<rect width="21" height="520" x="512" y="40" style="fill:rgb(230,230,230);stroke:none"/>
<text x="514" y="575" fill="rgb(0,0,0)" font-family="Arial" font-size="12">24</text>
<rect width="21" height="520" x="554" y="40" style="fill:rgb(230,230,230);stroke:none"/>
<text x="556" y="575" fill="rgb(0,0,0)" font-family="Arial" font-size="12">26</text>
<rect width="21" height="520" x="596" y="40" style="fill:rgb(230,230,230);stroke:none"/>
<text x="598" y="575" fill="rgb(0,0,0)" font-family="Arial" font-size="12">28</text>
<rect width="21" height="520" x="638" y="40" style="fill:rgb(230,230,230);stroke:none"/>
<text x="640" y="575" fill="rgb(0,0,0)" font-family="Arial" font-size="12">30</text>
<rect width="21" height="520" x="680" y="40" style="fill:rgb(230,230,230);stroke:none"/>
<text x="682" y="575" fill="rgb(0,0,0)" font-family="Arial" font-size="12">32</text>
<rect width="21" height="520" x="722" y="40" style="fill:rgb(230,230,230);stroke:none"/>
<text x="724" y="575" fill="rgb(0,0,0)" font-family="Arial" font-size="12">34</text>
<line x1="29" y1="560" x2="790" y2="560" stroke="rgb(180,180,180)" stroke-width="1"/>
<line x1="29" y1="508" x2="790" y2="508" stroke="rgb(180,180,180)" stroke-width="1"/>
<line x1="29" y1="456" x2="790" y2="456" stroke="rgb(180,180,180)" stroke-width="1"/>
<line x1="29" y1="404" x2="790" y2="404" stroke="rgb(180,180,180)" stroke-width="1"/>
<line x1="29" y1="352" x2="790" y2="352" stroke="rgb(180,180,180)" stroke-width="1"/>
<line x1="29" y1="300" x2="790" y2="300" stroke="rgb(180,180,180)" stroke-width="1"/>
<line x1="29" y1="248" x2="790" y2="248" stroke="rgb(180,180,180)" stroke-width="1"/>
<line x1="29" y1="196" x2="790" y2="196" stroke="rgb(180,180,180)" stroke-width="1"/>
<line x1="29" y1="144" x2="790" y2="144" stroke="rgb(180,180,180)" stroke-width="1"/>
<line x1="29" y1="92" x2="790" y2="92" stroke="rgb(180,180,180)" stroke-width="1"/>
<line x1="29" y1="40" x2="790" y2="40" stroke="rgb(180,180,180)" stroke-width="1"/>
<line x1="39" y1="460" x2="60" y2="560" stroke="rgb(136,34,85)" stroke-width="1"/>
<line x1="60" y1="560" x2="81" y2="430" stroke="rgb(136,34,85)" stroke-width="1"/>
<line x1="81" y1="430" x2="102" y2="387" stroke="rgb(136,34,85)" stroke-width="1"/>
<line x1="102" y1="387" x2="123" y2="560" stroke="rgb(136,34,85)" stroke-width="1"/>
<line x1="123" y1="560" x2="144" y2="378" stroke="rgb(136,34,85)" stroke-width="1"/>
<line x1="144" y1="378" x2="165" y2="519" stroke="rgb(136,34,85)" stroke-width="1"/>
<line x1="165" y1="519" x2="186" y2="480" stroke="rgb(136,34,85)" stroke-width="1"/>
<line x1="186" y1="480" x2="207" y2="430" stroke="rgb(136,34,85)" stroke-width="1"/>
<line x1="207" y1="430" x2="228" y2="459" stroke="rgb(136,34,85)" stroke-width="1"/>
<line x1="228" y1="459" x2="249" y2="444" stroke="rgb(136,34,85)" stroke-width="1"/>
<line x1="249" y1="444" x2="270" y2="417" stroke="rgb(136,34,85)" stroke-width="1"/>
<line x1="270" y1="417" x2="291" y2="456" stroke="rgb(136,34,85)" stroke-width="1"/>
<line x1="291" y1="456" x2="312" y2="453" stroke="rgb(136,34,85)" stroke-width="1"/>
<line x1="312" y1="453" x2="333" y2="444" stroke="rgb(136,34,85)" stroke-width="1"/>
<line x1="333" y1="444" x2="354" y2="434" stroke="rgb(136,34,85)" stroke-width="1"/>
<line x1="354" y1="434" x2="375" y2="459" stroke="rgb(136,34,85)" stroke-width="1"/>
<line x1="375" y1="459" x2="396" y2="442" stroke="rgb(136,34,85)" stroke-width="1"/>
<line x1="396" y1="442" x2="417" y2="452" stroke="rgb(136,34,85)" stroke-width="1"/>
<line x1="417" y1="452" x2="438" y2="416" stroke="rgb(136,34,85)" stroke-width="1"/>
<line x1="438" y1="416" x2="459" y2="445" stroke="rgb(136,34,85)" stroke-width="1"/>
<line x1="459" y1="445" x2="480" y2="440" stroke="rgb(136,34,85)" stroke-width="1"/>
<line x1="480" y1="440" x2="501" y2="560" stroke="rgb(136,34,85)" stroke-width="1"/>
<line x1="501" y1="560" x2="522" y2="560" stroke="rgb(136,34,85)" stroke-width="1"/>
<line x1="522" y1="560" x2="543" y2="560" stroke="rgb(136,34,85)" stroke-width="1"/>
<line x1="543" y1="560" x2="564" y2="560" stroke="rgb(136,34,85)" stroke-width="1"/>
<line x1="564" y1="560" x2="585" y2="560" stroke="rgb(136,34,85)" stroke-width="1"/>
<line x1="585" y1="560" x2="606" y2="560" stroke="rgb(136,34,85)" stroke-width="1"/>
<line x1="606" y1="560" x2="627" y2="560" stroke="rgb(136,34,85)" stroke-width="1"/>
<line x1="627" y1="560" x2="648" y2="452" stroke="rgb(136,34,85)" stroke-width="1"/>
<line x1="648" y1="452" x2="669" y2="465" stroke="rgb(136,34,85)" stroke-width="1"/>
<line x1="669" y1="465" x2="690" y2="445" stroke="rgb(136,34,85)" stroke-width="1"/>
<line x1="690" y1="445" x2="711" y2="449" stroke="rgb(136,34,85)" stroke-width="1"/>
<line x1="711" y1="449" x2="732" y2="456" stroke="rgb(136,34,85)" stroke-width="1"/>
<line x1="732" y1="456" x2="753" y2="465" stroke="rgb(136,34,85)" stroke-width="1"/>
<line x1="39" y1="412" x2="60" y2="560" stroke="rgb(51,34,136)" stroke-width="1"/>
<line x1="60" y1="560" x2="81" y2="486" stroke="rgb(51,34,136)" stroke-width="1"/>
<line x1="81" y1="486" x2="102" y2="560" stroke="rgb(51,34,136)" stroke-width="1"/>
<line x1="102" y1="560" x2="123" y2="560" stroke="rgb(51,34,136)" stroke-width="1"/>
<line x1="123" y1="560" x2="144" y2="456" stroke="rgb(51,34,136)" stroke-width="1"/>
<line x1="144" y1="456" x2="165" y2="415" stroke="rgb(51,34,136)" stroke-width="1"/>
<line x1="165" y1="415" x2="186" y2="420" stroke="rgb(51,34,136)" stroke-width="1"/>
<line x1="186" y1="420" x2="207" y2="438" stroke="rgb(51,34,136)" stroke-width="1"/>
<line x1="207" y1="438" x2="228" y2="411" stroke="rgb(51,34,136)" stroke-width="1"/>
<line x1="228" y1="411" x2="249" y2="456" stroke="rgb(51,34,136)" stroke-width="1"/>
<line x1="249" y1="456" x2="270" y2="466" stroke="rgb(51,34,136)" stroke-width="1"/>
<line x1="270" y1="466" x2="291" y2="428" stroke="rgb(51,34,136)" stroke-width="1"/>
<line x1="291" y1="428" x2="312" y2="448" stroke="rgb(51,34,136)" stroke-width="1"/>
<line x1="312" y1="448" x2="333" y2="444" stroke="rgb(51,34,136)" stroke-width="1"/>
<line x1="333" y1="444" x2="354" y2="438" stroke="rgb(51,34,136)" stroke-width="1"/>
<line x1="354" y1="438" x2="375" y2="446" stroke="rgb(51,34,136)" stroke-width="1"/>
<line x1="375" y1="446" x2="396" y2="428" stroke="rgb(51,34,136)" stroke-width="1"/>
<line x1="396" y1="428" x2="417" y2="456" stroke="rgb(51,34,136)" stroke-width="1"/>
<line x1="417" y1="456" x2="438" y2="464" stroke="rgb(51,34,136)" stroke-width="1"/>
<line x1="438" y1="464" x2="459" y2="412" stroke="rgb(51,34,136)" stroke-width="1"/>
<line x1="459" y1="412" x2="480" y2="420" stroke="rgb(51,34,136)" stroke-width="1"/>
<line x1="480" y1="420" x2="501" y2="560" stroke="rgb(51,34,136)" stroke-width="1"/>
<line x1="501" y1="560" x2="522" y2="560" stroke="rgb(51,34,136)" stroke-width="1"/>
<line x1="522" y1="560" x2="543" y2="560" stroke="rgb(51,34,136)" stroke-width="1"/>
<line x1="543" y1="560" x2="564" y2="560" stroke="rgb(51,34,136)" stroke-width="1"/>
<line x1="564" y1="560" x2="585" y2="560" stroke="rgb(51,34,136)" stroke-width="1"/>
<line x1="585" y1="560" x2="606" y2="560" stroke="rgb(51,34,136)" stroke-width="1"/>
<line x1="606" y1="560" x2="627" y2="560" stroke="rgb(51,34,136)" stroke-width="1"/>
<line x1="627" y1="560" x2="648" y2="484" stroke="rgb(51,34,136)" stroke-width="1"/>
<line x1="648" y1="484" x2="669" y2="418" stroke="rgb(51,34,136)" stroke-width="1"/>
<line x1="669" y1="418" x2="690" y2="438" stroke="rgb(51,34,136)" stroke-width="1"/>
<line x1="690" y1="438" x2="711" y2="430" stroke="rgb(51,34,136)" stroke-width="1"/>
<line x1="711" y1="430" x2="732" y2="447" stroke="rgb(51,34,136)" stroke-width="1"/>
<line x1="732" y1="447" x2="753" y2="429" stroke="rgb(51,34,136)" stroke-width="1"/>
<line x1="39" y1="412" x2="60" y2="560" stroke="rgb(17,119,51)" stroke-width="1"/>
<line x1="60" y1="560" x2="81" y2="412" stroke="rgb(17,119,51)" stroke-width="1"/>
<line x1="81" y1="412" x2="102" y2="474" stroke="rgb(17,119,51)" stroke-width="1"/>
<line x1="102" y1="474" x2="123" y2="560" stroke="rgb(17,119,51)" stroke-width="1"/>
<line x1="123" y1="560" x2="144" y2="404" stroke="rgb(17,119,51)" stroke-width="1"/>
<line x1="144" y1="404" x2="165" y2="352" stroke="rgb(17,119,51)" stroke-width="1"/>
<line x1="165" y1="352" x2="186" y2="360" stroke="rgb(17,119,51)" stroke-width="1"/>
<line x1="186" y1="360" x2="207" y2="380" stroke="rgb(17,119,51)" stroke-width="1"/>
<line x1="207" y1="380" x2="228" y2="387" stroke="rgb(17,119,51)" stroke-width="1"/>
<line x1="228" y1="387" x2="249" y2="409" stroke="rgb(17,119,51)" stroke-width="1"/>
<line x1="249" y1="409" x2="270" y2="395" stroke="rgb(17,119,51)" stroke-width="1"/>
<line x1="270" y1="395" x2="291" y2="388" stroke="rgb(17,119,51)" stroke-width="1"/>
<line x1="291" y1="388" x2="312" y2="366" stroke="rgb(17,119,51)" stroke-width="1"/>
<line x1="312" y1="366" x2="333" y2="391" stroke="rgb(17,119,51)" stroke-width="1"/>
<line x1="333" y1="391" x2="354" y2="399" stroke="rgb(17,119,51)" stroke-width="1"/>
<line x1="354" y1="399" x2="375" y2="394" stroke="rgb(17,119,51)" stroke-width="1"/>
<line x1="375" y1="394" x2="396" y2="376" stroke="rgb(17,119,51)" stroke-width="1"/>
<line x1="396" y1="376" x2="417" y2="376" stroke="rgb(17,119,51)" stroke-width="1"/>
<line x1="417" y1="376" x2="438" y2="408" stroke="rgb(17,119,51)" stroke-width="1"/>
<line x1="438" y1="408" x2="459" y2="412" stroke="rgb(17,119,51)" stroke-width="1"/>
<line x1="459" y1="412" x2="480" y2="340" stroke="rgb(17,119,51)" stroke-width="1"/>
<line x1="480" y1="340" x2="501" y2="560" stroke="rgb(17,119,51)" stroke-width="1"/>
<line x1="501" y1="560" x2="522" y2="560" stroke="rgb(17,119,51)" stroke-width="1"/>
<line x1="522" y1="560" x2="543" y2="560" stroke="rgb(17,119,51)" stroke-width="1"/>
<line x1="543" y1="560" x2="564" y2="560" stroke="rgb(17,119,51)" stroke-width="1"/>
<line x1="564" y1="560" x2="585" y2="560" stroke="rgb(17,119,51)" stroke-width="1"/>
<line x1="585" y1="560" x2="606" y2="560" stroke="rgb(17,119,51)" stroke-width="1"/>
<line x1="606" y1="560" x2="627" y2="560" stroke="rgb(17,119,51)" stroke-width="1"/>
<line x1="627" y1="560" x2="648" y2="398" stroke="rgb(17,119,51)" stroke-width="1"/>
<line x1="648" y1="398" x2="669" y2="414" stroke="rgb(17,119,51)" stroke-width="1"/>
<line x1="669" y1="414" x2="690" y2="376" stroke="rgb(17,119,51)" stroke-width="1"/>
<line x1="690" y1="376" x2="711" y2="412" stroke="rgb(17,119,51)" stroke-width="1"/>
<line x1="711" y1="412" x2="732" y2="381" stroke="rgb(17,119,51)" stroke-width="1"/>
<line x1="732" y1="381" x2="753" y2="399" stroke="rgb(17,119,51)" stroke-width="1"/>
<line x1="39" y1="436" x2="60" y2="560" stroke="rgb(221,204,119)" stroke-width="1"/>
<line x1="60" y1="560" x2="81" y2="393" stroke="rgb(221,204,119)" stroke-width="1"/>
<line x1="81" y1="393" x2="102" y2="300" stroke="rgb(221,204,119)" stroke-width="1"/>
<line x1="102" y1="300" x2="123" y2="560" stroke="rgb(221,204,119)" stroke-width="1"/>
<line x1="123" y1="560" x2="144" y2="482" stroke="rgb(221,204,119)" stroke-width="1"/>
<line x1="144" y1="482" x2="165" y2="436" stroke="rgb(221,204,119)" stroke-width="1"/>
<line x1="165" y1="436" x2="186" y2="460" stroke="rgb(221,204,119)" stroke-width="1"/>
<line x1="186" y1="460" x2="207" y2="474" stroke="rgb(221,204,119)" stroke-width="1"/>
<line x1="207" y1="474" x2="228" y2="464" stroke="rgb(221,204,119)" stroke-width="1"/>
<line x1="228" y1="464" x2="249" y2="413" stroke="rgb(221,204,119)" stroke-width="1"/>
<line x1="249" y1="413" x2="270" y2="444" stroke="rgb(221,204,119)" stroke-width="1"/>
<line x1="270" y1="444" x2="291" y2="449" stroke="rgb(221,204,119)" stroke-width="1"/>
<line x1="291" y1="449" x2="312" y2="455" stroke="rgb(221,204,119)" stroke-width="1"/>
<line x1="312" y1="455" x2="333" y2="444" stroke="rgb(221,204,119)" stroke-width="1"/>
<line x1="333" y1="444" x2="354" y2="452" stroke="rgb(221,204,119)" stroke-width="1"/>
<line x1="354" y1="452" x2="375" y2="423" stroke="rgb(221,204,119)" stroke-width="1"/>
<line x1="375" y1="423" x2="396" y2="477" stroke="rgb(221,204,119)" stroke-width="1"/>
<line x1="396" y1="477" x2="417" y2="436" stroke="rgb(221,204,119)" stroke-width="1"/>
<line x1="417" y1="436" x2="438" y2="434" stroke="rgb(221,204,119)" stroke-width="1"/>
<line x1="438" y1="434" x2="459" y2="453" stroke="rgb(221,204,119)" stroke-width="1"/>
<line x1="459" y1="453" x2="480" y2="520" stroke="rgb(221,204,119)" stroke-width="1"/>
<line x1="480" y1="520" x2="501" y2="560" stroke="rgb(221,204,119)" stroke-width="1"/>
<line x1="501" y1="560" x2="522" y2="560" stroke="rgb(221,204,119)" stroke-width="1"/>
<line x1="522" y1="560" x2="543" y2="560" stroke="rgb(221,204,119)" stroke-width="1"/>
<line x1="543" y1="560" x2="564" y2="560" stroke="rgb(221,204,119)" stroke-width="1"/>
<line x1="564" y1="560" x2="585" y2="560" stroke="rgb(221,204,119)" stroke-width="1"/>
<line x1="585" y1="560" x2="606" y2="560" stroke="rgb(221,204,119)" stroke-width="1"/>
<line x1="606" y1="560" x2="627" y2="560" stroke="rgb(221,204,119)" stroke-width="1"/>
<line x1="627" y1="560" x2="648" y2="389" stroke="rgb(221,204,119)" stroke-width="1"/>
<line x1="648" y1="389" x2="669" y2="426" stroke="rgb(221,204,119)" stroke-width="1"/>
<line x1="669" y1="426" x2="690" y2="463" stroke="rgb(221,204,119)" stroke-width="1"/>
<line x1="690" y1="463" x2="711" y2="430" stroke="rgb(221,204,119)" stroke-width="1"/>
<line x1="711" y1="430" x2="732" y2="438" stroke="rgb(221,204,119)" stroke-width="1"/>
<line x1="732" y1="438" x2="753" y2="429" stroke="rgb(221,204,119)" stroke-width="1"/>
<rect width="28" height="83" x="762" y="40" style="fill:rgb(255,255,255);stroke:none"/>
<rect width="28" height="83" x="762" y="40" rx="0" ry="0" style="fill:none;stroke-width:1;stroke:rgb(192,192,192)"/>
<text x="765" y="55" fill="rgb(136,34,85)" font-family="Arial" font-size="12" font-weight="bold">%T</text>
<text x="765" y="75" fill="rgb(51,34,136)" font-family="Arial" font-size="12" font-weight="bold">%C</text>
<text x="765" y="95" fill="rgb(17,119,51)" font-family="Arial" font-size="12" font-weight="bold">%A</text>
<text x="765" y="115" fill="rgb(221,204,119)" font-family="Arial" font-size="12" font-weight="bold">%G</text>
</svg>
