<?xml version="1.0" standalone="no"?>
<!DOCTYPE svg PUBLIC "-//W3C//DTD SVG 1.1//EN" "http://www.w3.org/Graphics/SVG/1.1/DTD/svg11.dtd">
<svg width="800" height="600" version="1.1" xmlns="http://www.w3.org/2000/svg">
<rect width="800" height="600" x="0" y="0" style="fill:rgb(238,238,238);stroke:none"/>
<rect width="800" height="600" x="0" y="0" style="fill:rgb(255,255,255);stroke:none"/>
<text x="2" y="566" fill="rgb(0,0,0)" font-family="Arial" font-size="12">0</text>
<text x="2" y="537" fill="rgb(0,0,0)" font-family="Arial" font-size="12">2</text>
<text x="2" y="507" fill="rgb(0,0,0)" font-family="Arial" font-size="12">4</text>
<text x="2" y="477" fill="rgb(0,0,0)" font-family="Arial" font-size="12">6</text>
<text x="2" y="448" fill="rgb(0,0,0)" font-family="Arial" font-size="12">8</text>
<text x="2" y="418" fill="rgb(0,0,0)" font-family="Arial" font-size="12">10</text>
<text x="2" y="388" fill="rgb(0,0,0)" font-family="Arial" font-size="12">12</text>
<text x="2" y="358" fill="rgb(0,0,0)" font-family="Arial" font-size="12">14</text>
<text x="2" y="329" fill="rgb(0,0,0)" font-family="Arial" font-size="12">16</text>
<text x="2" y="299" fill="rgb(0,0,0)" font-family="Arial" font-size="12">18</text>
<text x="2" y="269" fill="rgb(0,0,0)" font-family="Arial" font-size="12">20</text>
<text x="2" y="240" fill="rgb(0,0,0)" font-family="Arial" font-size="12">22</text>
<text x="2" y="210" fill="rgb(0,0,0)" font-family="Arial" font-size="12">24</text>
<text x="2" y="180" fill="rgb(0,0,0)" font-family="Arial" font-size="12">26</text>
<text x="2" y="150" fill="rgb(0,0,0)" font-family="Arial" font-size="12">28</text>
<text x="2" y="121" fill="rgb(0,0,0)" font-family="Arial" font-size="12">30</text>
<text x="2" y="91" fill="rgb(0,0,0)" font-family="Arial" font-size="12">32</text>
<text x="2" y="61" fill="rgb(0,0,0)" font-family="Arial" font-size="12">34</text>
<text x="214" y="30" fill="rgb(0,0,0)" font-family="Arial" font-size="12">Quality scores across all bases (Sanger / Illumina 1.9 encoding)</text>
<rect width="21" height="297" x="21" y="263" style="fill:rgb(230,175,175);stroke:none"/>
<rect width="21" height="119" x="21" y="144" style="fill:rgb(230,215,175);stroke:none"/>
<rect width="21" height="104" x="21" y="40" style="fill:rgb(175,230,175);stroke:none"/>
<text x="27" y="575" fill="rgb(0,0,0)" font-family="Arial" font-size="12">1</text>
<rect width="21" height="297" x="42" y="263" style="fill:rgb(230,195,195);stroke:none"/>
<rect width="21" height="119" x="42" y="144" style="fill:rgb(230,220,195);stroke:none"/>
<rect width="21" height="104" x="42" y="40" style="fill:rgb(195,230,195);stroke:none"/>
<text x="48" y="575" fill="rgb(0,0,0)" font-family="Arial" font-size="12">2</text>
<rect width="21" height="297" x="63" y="263" style="fill:rgb(230,175,175);stroke:none"/>
<rect width="21" height="119" x="63" y="144" style="fill:rgb(230,215,175);stroke:none"/>
<rect width="21" height="104" x="63" y="40" style="fill:rgb(175,230,175);stroke:none"/>
<text x="69" y="575" fill="rgb(0,0,0)" font-family="Arial" font-size="12">3</text>
<rect width="21" height="297" x="84" y="263" style="fill:rgb(230,195,195);stroke:none"/>
<rect width="21" height="119" x="84" y="144" style="fill:rgb(230,220,195);stroke:none"/>
<rect width="21" height="104" x="84" y="40" style="fill:rgb(195,230,195);stroke:none"/>
<text x="90" y="575" fill="rgb(0,0,0)" font-family="Arial" font-size="12">4</text>
<rect width="21" height="297" x="105" y="263" style="fill:rgb(230,175,175);stroke:none"/>
<rect width="21" height="119" x="105" y="144" style="fill:rgb(230,215,175);stroke:none"/>
<rect width="21" height="104" x="105" y="40" style="fill:rgb(175,230,175);stroke:none"/>
<text x="111" y="575" fill="rgb(0,0,0)" font-family="Arial" font-size="12">5</text>
<rect width="21" height="297" x="126" y="263" style="fill:rgb(230,195,195);stroke:none"/>
<rect width="21" height="119" x="126" y="144" style="fill:rgb(230,220,195);stroke:none"/>
<rect width="21" height="104" x="126" y="40" style="fill:rgb(195,230,195);stroke:none"/>
<text x="132" y="575" fill="rgb(0,0,0)" font-family="Arial" font-size="12">6</text>
<rect width="21" height="297" x="147" y="263" style="fill:rgb(230,175,175);stroke:none"/>
<rect width="21" height="119" x="147" y="144" style="fill:rgb(230,215,175);stroke:none"/>
<rect width="21" height="104" x="147" y="40" style="fill:rgb(175,230,175);stroke:none"/>
<text x="153" y="575" fill="rgb(0,0,0)" font-family="Arial" font-size="12">7</text>
<rect width="21" height="297" x="168" y="263" style="fill:rgb(230,195,195);stroke:none"/>
<rect width="21" height="119" x="168" y="144" style="fill:rgb(230,220,195);stroke:none"/>
<rect width="21" height="104" x="168" y="40" style="fill:rgb(195,230,195);stroke:none"/>
<text x="174" y="575" fill="rgb(0,0,0)" font-family="Arial" font-size="12">8</text>
<rect width="21" height="297" x="189" y="263" style="fill:rgb(230,175,175);stroke:none"/>
<rect width="21" height="119" x="189" y="144" style="fill:rgb(230,215,175);stroke:none"/>
<rect width="21" height="104" x="189" y="40" style="fill:rgb(175,230,175);stroke:none"/>
<text x="195" y="575" fill="rgb(0,0,0)" font-family="Arial" font-size="12">9</text>
<rect width="21" height="297" x="210" y="263" style="fill:rgb(230,195,195);stroke:none"/>
<rect width="21" height="119" x="210" y="144" style="fill:rgb(230,220,195);stroke:none"/>
<rect width="21" height="104" x="210" y="40" style="fill:rgb(195,230,195);stroke:none"/>
<text x="212" y="575" fill="rgb(0,0,0)" font-family="Arial" font-size="12">10</text>
<rect width="21" height="297" x="231" y="263" style="fill:rgb(230,175,175);stroke:none"/>
<rect width="21" height="119" x="231" y="144" style="fill:rgb(230,215,175);stroke:none"/>
<rect width="21" height="104" x="231" y="40" style="fill:rgb(175,230,175);stroke:none"/>
<rect width="21" height="297" x="252" y="263" style="fill:rgb(230,195,195);stroke:none"/>
<rect width="21" height="119" x="252" y="144" style="fill:rgb(230,220,195);stroke:none"/>
<rect width="21" height="104" x="252" y="40" style="fill:rgb(195,230,195);stroke:none"/>
<text x="254" y="575" fill="rgb(0,0,0)" font-family="Arial" font-size="12">12</text>
<rect width="21" height="297" x="273" y="263" style="fill:rgb(230,175,175);stroke:none"/>
<rect width="21" height="119" x="273" y="144" style="fill:rgb(230,215,175);stroke:none"/>
<rect width="21" height="104" x="273" y="40" style="fill:rgb(175,230,175);stroke:none"/>
<rect width="21" height="297" x="294" y="263" style="fill:rgb(230,195,195);stroke:none"/>
<rect width="21" height="119" x="294" y="144" style="fill:rgb(230,220,195);stroke:none"/>
<rect width="21" height="104" x="294" y="40" style="fill:rgb(195,230,195);stroke:none"/>
<text x="296" y="575" fill="rgb(0,0,0)" font-family="Arial" font-size="12">14</text>
<rect width="21" height="297" x="315" y="263" style="fill:rgb(230,175,175);stroke:none"/>
<rect width="21" height="119" x="315" y="144" style="fill:rgb(230,215,175);stroke:none"/>
<rect width="21" height="104" x="315" y="40" style="fill:rgb(175,230,175);stroke:none"/>
<rect width="21" height="297" x="336" y="263" style="fill:rgb(230,195,195);stroke:none"/>
<rect width="21" height="119" x="336" y="144" style="fill:rgb(230,220,195);stroke:none"/>
<rect width="21" height="104" x="336" y="40" style="fill:rgb(195,230,195);stroke:none"/>
<text x="338" y="575" fill="rgb(0,0,0)" font-family="Arial" font-size="12">16</text>
<rect width="21" height="297" x="357" y="263" style="fill:rgb(230,175,175);stroke:none"/>
<rect width="21" height="119" x="357" y="144" style="fill:rgb(230,215,175);stroke:none"/>
<rect width="21" height="104" x="357" y="40" style="fill:rgb(175,230,175);stroke:none"/>
<rect width="21" height="297" x="378" y="263" style="fill:rgb(230,195,195);stroke:none"/>
<rect width="21" height="119" x="378" y="144" style="fill:rgb(230,220,195);stroke:none"/>
<rect width="21" height="104" x="378" y="40" style="fill:rgb(195,230,195);stroke:none"/>
<text x="380" y="575" fill="rgb(0,0,0)" font-family="Arial" font-size="12">18</text>
<rect width="21" height="297" x="399" y="263" style="fill:rgb(230,175,175);stroke:none"/>
<rect width="21" height="119" x="399" y="144" style="fill:rgb(230,215,175);stroke:none"/>
<rect width="21" height="104" x="399" y="40" style="fill:rgb(175,230,175);stroke:none"/>
<rect width="21" height="297" x="420" y="263" style="fill:rgb(230,195,195);stroke:none"/>
<rect width="21" height="119" x="420" y="144" style="fill:rgb(230,220,195);stroke:none"/>
<rect width="21" height="104" x="420" y="40" style="fill:rgb(195,230,195);stroke:none"/>
<text x="422" y="575" fill="rgb(0,0,0)" font-family="Arial" font-size="12">20</text>
<rect width="21" height="297" x="441" y="263" style="fill:rgb(230,175,175);stroke:none"/>
<rect width="21" height="119" x="441" y="144" style="fill:rgb(230,215,175);stroke:none"/>
<rect width="21" height="104" x="441" y="40" style="fill:rgb(175,230,175);stroke:none"/>
<rect width="21" height="297" x="462" y="263" style="fill:rgb(230,195,195);stroke:none"/>
<rect width="21" height="119" x="462" y="144" style="fill:rgb(230,220,195);stroke:none"/>
<rect width="21" height="104" x="462" y="40" style="fill:rgb(195,230,195);stroke:none"/>
<text x="464" y="575" fill="rgb(0,0,0)" font-family="Arial" font-size="12">22</text>
<rect width="21" height="297" x="483" y="263" style="fill:rgb(230,175,175);stroke:none"/>
<rect width="21" height="119" x="483" y="144" style="fill:rgb(230,215,175);stroke:none"/>
<rect width="21" height="104" x="483" y="40" style="fill:rgb(175,230,175);stroke:none"/>
<rect width="21" height="297" x="504" y="263" style="fill:rgb(230,195,195);stroke:none"/>
<rect width="21" height="119" x="504" y="144" style="fill:rgb(230,220,195);stroke:none"/>
<rect width="21" height="104" x="504" y="40" style="fill:rgb(195,230,195);stroke:none"/>
<text x="506" y="575" fill="rgb(0,0,0)" font-family="Arial" font-size="12">24</text>
<rect width="21" height="297" x="525" y="263" style="fill:rgb(230,175,175);stroke:none"/>
<rect width="21" height="119" x="525" y="144" style="fill:rgb(230,215,175);stroke:none"/>
<rect width="21" height="104" x="525" y="40" style="fill:rgb(175,230,175);stroke:none"/>
<rect width="21" height="297" x="546" y="263" style="fill:rgb(230,195,195);stroke:none"/>
<rect width="21" height="119" x="546" y="144" style="fill:rgb(230,220,195);stroke:none"/>
<rect width="21" height="104" x="546" y="40" style="fill:rgb(195,230,195);stroke:none"/>
<text x="548" y="575" fill="rgb(0,0,0)" font-family="Arial" font-size="12">26</text>
<rect width="21" height="297" x="567" y="263" style="fill:rgb(230,175,175);stroke:none"/>
<rect width="21" height="119" x="567" y="144" style="fill:rgb(230,215,175);stroke:none"/>
<rect width="21" height="104" x="567" y="40" style="fill:rgb(175,230,175);stroke:none"/>
<rect width="21" height="297" x="588" y="263" style="fill:rgb(230,195,195);stroke:none"/>
<rect width="21" height="119" x="588" y="144" style="fill:rgb(230,220,195);stroke:none"/>
<rect width="21" height="104" x="588" y="40" style="fill:rgb(195,230,195);stroke:none"/>
<text x="590" y="575" fill="rgb(0,0,0)" font-family="Arial" font-size="12">28</text>
<rect width="21" height="297" x="609" y="263" style="fill:rgb(230,175,175);stroke:none"/>
<rect width="21" height="119" x="609" y="144" style="fill:rgb(230,215,175);stroke:none"/>
<rect width="21" height="104" x="609" y="40" style="fill:rgb(175,230,175);stroke:none"/>
<rect width="21" height="297" x="630" y="263" style="fill:rgb(230,195,195);stroke:none"/>
<rect width="21" height="119" x="630" y="144" style="fill:rgb(230,220,195);stroke:none"/>
<rect width="21" height="104" x="630" y="40" style="fill:rgb(195,230,195);stroke:none"/>
<text x="632" y="575" fill="rgb(0,0,0)" font-family="Arial" font-size="12">30</text>
<rect width="21" height="297" x="651" y="263" style="fill:rgb(230,175,175);stroke:none"/>
<rect width="21" height="119" x="651" y="144" style="fill:rgb(230,215,175);stroke:none"/>
<rect width="21" height="104" x="651" y="40" style="fill:rgb(175,230,175);stroke:none"/>
<rect width="21" height="297" x="672" y="263" style="fill:rgb(230,195,195);stroke:none"/>
<rect width="21" height="119" x="672" y="144" style="fill:rgb(230,220,195);stroke:none"/>
<rect width="21" height="104" x="672" y="40" style="fill:rgb(195,230,195);stroke:none"/>
<text x="674" y="575" fill="rgb(0,0,0)" font-family="Arial" font-size="12">32</text>
<rect width="21" height="297" x="693" y="263" style="fill:rgb(230,175,175);stroke:none"/>
<rect width="21" height="119" x="693" y="144" style="fill:rgb(230,215,175);stroke:none"/>
<rect width="21" height="104" x="693" y="40" style="fill:rgb(175,230,175);stroke:none"/>
<rect width="21" height="297" x="714" y="263" style="fill:rgb(230,195,195);stroke:none"/>
<rect width="21" height="119" x="714" y="144" style="fill:rgb(230,220,195);stroke:none"/>
<rect width="21" height="104" x="714" y="40" style="fill:rgb(195,230,195);stroke:none"/>
<text x="716" y="575" fill="rgb(0,0,0)" font-family="Arial" font-size="12">34</text>
<rect width="21" height="297" x="735" y="263" style="fill:rgb(230,175,175);stroke:none"/>
<rect width="21" height="119" x="735" y="144" style="fill:rgb(230,215,175);stroke:none"/>
<rect width="21" height="104" x="735" y="40" style="fill:rgb(175,230,175);stroke:none"/>
<line x1="21" y1="560" x2="790" y2="560" stroke="rgb(0,0,0)" stroke-width="1"/>
<line x1="21" y1="560" x2="21" y2="40" stroke="rgb(0,0,0)" stroke-width="1"/>
<text x="339" y="595" fill="rgb(0,0,0)" font-family="Arial" font-size="12">Position in read (bp)</text>
<rect width="17" height="29" x="23" y="531" style="fill:rgb(240,240,0);stroke:none"/>
<rect width="17" height="29" x="23" y="531" rx="0" ry="0" style="fill:none;stroke-width:1;stroke:rgb(0,0,0)"/>
<line x1="31" y1="70" x2="31" y2="531" stroke="rgb(0,0,0)" stroke-width="1"/>
<line x1="23" y1="70" x2="40" y2="70" stroke="rgb(0,0,0)" stroke-width="1"/>
<line x1="31" y1="560" x2="31" y2="560" stroke="rgb(0,0,0)" stroke-width="1"/>
<line x1="23" y1="560" x2="40" y2="560" stroke="rgb(0,0,0)" stroke-width="1"/>
<line x1="23" y1="531" x2="40" y2="531" stroke="rgb(200,0,0)" stroke-width="1"/>
<rect width="17" height="0" x="44" y="560" style="fill:rgb(240,240,0);stroke:none"/>
<rect width="17" height="0" x="44" y="560" rx="0" ry="0" style="fill:none;stroke-width:1;stroke:rgb(0,0,0)"/>
<line x1="52" y1="560" x2="52" y2="560" stroke="rgb(0,0,0)" stroke-width="1"/>
<line x1="44" y1="560" x2="61" y2="560" stroke="rgb(0,0,0)" stroke-width="1"/>
<line x1="52" y1="560" x2="52" y2="560" stroke="rgb(0,0,0)" stroke-width="1"/>
<line x1="44" y1="560" x2="61" y2="560" stroke="rgb(0,0,0)" stroke-width="1"/>
<line x1="44" y1="560" x2="61" y2="560" stroke="rgb(200,0,0)" stroke-width="1"/>
<rect width="17" height="0" x="65" y="560" style="fill:rgb(240,240,0);stroke:none"/>
<rect width="17" height="0" x="65" y="560" rx="0" ry="0" style="fill:none;stroke-width:1;stroke:rgb(0,0,0)"/>
<line x1="73" y1="531" x2="73" y2="560" stroke="rgb(0,0,0)" stroke-width="1"/>
<line x1="65" y1="531" x2="82" y2="531" stroke="rgb(0,0,0)" stroke-width="1"/>
<line x1="73" y1="560" x2="73" y2="560" stroke="rgb(0,0,0)" stroke-width="1"/>
<line x1="65" y1="560" x2="82" y2="560" stroke="rgb(0,0,0)" stroke-width="1"/>
<line x1="65" y1="560" x2="82" y2="560" stroke="rgb(200,0,0)" stroke-width="1"/>
<rect width="17" height="0" x="86" y="560" style="fill:rgb(240,240,0);stroke:none"/>
<rect width="17" height="0" x="86" y="560" rx="0" ry="0" style="fill:none;stroke-width:1;stroke:rgb(0,0,0)"/>
<line x1="94" y1="560" x2="94" y2="560" stroke="rgb(0,0,0)" stroke-width="1"/>
<line x1="86" y1="560" x2="103" y2="560" stroke="rgb(0,0,0)" stroke-width="1"/>
<line x1="94" y1="560" x2="94" y2="560" stroke="rgb(0,0,0)" stroke-width="1"/>
<line x1="86" y1="560" x2="103" y2="560" stroke="rgb(0,0,0)" stroke-width="1"/>
<line x1="86" y1="560" x2="103" y2="560" stroke="rgb(200,0,0)" stroke-width="1"/>
<rect width="17" height="0" x="107" y="560" style="fill:rgb(240,240,0);stroke:none"/>
<rect width="17" height="0" x="107" y="560" rx="0" ry="0" style="fill:none;stroke-width:1;stroke:rgb(0,0,0)"/>
<line x1="115" y1="560" x2="115" y2="560" stroke="rgb(0,0,0)" stroke-width="1"/>
<line x1="107" y1="560" x2="124" y2="560" stroke="rgb(0,0,0)" stroke-width="1"/>
<line x1="115" y1="560" x2="115" y2="560" stroke="rgb(0,0,0)" stroke-width="1"/>
<line x1="107" y1="560" x2="124" y2="560" stroke="rgb(0,0,0)" stroke-width="1"/>
<line x1="107" y1="560" x2="124" y2="560" stroke="rgb(200,0,0)" stroke-width="1"/>
<rect width="17" height="0" x="128" y="560" style="fill:rgb(240,240,0);stroke:none"/>
<rect width="17" height="0" x="128" y="560" rx="0" ry="0" style="fill:none;stroke-width:1;stroke:rgb(0,0,0)"/>
<line x1="136" y1="560" x2="136" y2="560" stroke="rgb(0,0,0)" stroke-width="1"/>
<line x1="128" y1="560" x2="145" y2="560" stroke="rgb(0,0,0)" stroke-width="1"/>
<line x1="136" y1="560" x2="136" y2="560" stroke="rgb(0,0,0)" stroke-width="1"/>
<line x1="128" y1="560" x2="145" y2="560" stroke="rgb(0,0,0)" stroke-width="1"/>
<line x1="128" y1="560" x2="145" y2="560" stroke="rgb(200,0,0)" stroke-width="1"/>
<rect width="17" height="0" x="149" y="560" style="fill:rgb(240,240,0);stroke:none"/>
<rect width="17" height="0" x="149" y="560" rx="0" ry="0" style="fill:none;stroke-width:1;stroke:rgb(0,0,0)"/>
<line x1="157" y1="560" x2="157" y2="560" stroke="rgb(0,0,0)" stroke-width="1"/>
<line x1="149" y1="560" x2="166" y2="560" stroke="rgb(0,0,0)" stroke-width="1"/>
<line x1="157" y1="560" x2="157" y2="560" stroke="rgb(0,0,0)" stroke-width="1"/>
<line x1="149" y1="560" x2="166" y2="560" stroke="rgb(0,0,0)" stroke-width="1"/>
<line x1="149" y1="560" x2="166" y2="560" stroke="rgb(200,0,0)" stroke-width="1"/>
<rect width="17" height="0" x="170" y="560" style="fill:rgb(240,240,0);stroke:none"/>
<rect width="17" height="0" x="170" y="560" rx="0" ry="0" style="fill:none;stroke-width:1;stroke:rgb(0,0,0)"/>
<line x1="178" y1="100" x2="178" y2="560" stroke="rgb(0,0,0)" stroke-width="1"/>
<line x1="170" y1="100" x2="187" y2="100" stroke="rgb(0,0,0)" stroke-width="1"/>
<line x1="178" y1="560" x2="178" y2="560" stroke="rgb(0,0,0)" stroke-width="1"/>
<line x1="170" y1="560" x2="187" y2="560" stroke="rgb(0,0,0)" stroke-width="1"/>
<line x1="170" y1="560" x2="187" y2="560" stroke="rgb(200,0,0)" stroke-width="1"/>
<rect width="17" height="29" x="191" y="531" style="fill:rgb(240,240,0);stroke:none"/>
<rect width="17" height="29" x="191" y="531" rx="0" ry="0" style="fill:none;stroke-width:1;stroke:rgb(0,0,0)"/>
<line x1="199" y1="70" x2="199" y2="531" stroke="rgb(0,0,0)" stroke-width="1"/>
<line x1="191" y1="70" x2="208" y2="70" stroke="rgb(0,0,0)" stroke-width="1"/>
<line x1="199" y1="560" x2="199" y2="560" stroke="rgb(0,0,0)" stroke-width="1"/>
<line x1="191" y1="560" x2="208" y2="560" stroke="rgb(0,0,0)" stroke-width="1"/>
<line x1="191" y1="560" x2="208" y2="560" stroke="rgb(200,0,0)" stroke-width="1"/>
<rect width="17" height="29" x="212" y="531" style="fill:rgb(240,240,0);stroke:none"/>
<rect width="17" height="29" x="212" y="531" rx="0" ry="0" style="fill:none;stroke-width:1;stroke:rgb(0,0,0)"/>
<line x1="220" y1="85" x2="220" y2="531" stroke="rgb(0,0,0)" stroke-width="1"/>
<line x1="212" y1="85" x2="229" y2="85" stroke="rgb(0,0,0)" stroke-width="1"/>
<line x1="220" y1="560" x2="220" y2="560" stroke="rgb(0,0,0)" stroke-width="1"/>
<line x1="212" y1="560" x2="229" y2="560" stroke="rgb(0,0,0)" stroke-width="1"/>
<line x1="212" y1="560" x2="229" y2="560" stroke="rgb(200,0,0)" stroke-width="1"/>
<rect width="17" height="29" x="233" y="531" style="fill:rgb(240,240,0);stroke:none"/>
<rect width="17" height="29" x="233" y="531" rx="0" ry="0" style="fill:none;stroke-width:1;stroke:rgb(0,0,0)"/>
<line x1="241" y1="70" x2="241" y2="531" stroke="rgb(0,0,0)" stroke-width="1"/>
<line x1="233" y1="70" x2="250" y2="70" stroke="rgb(0,0,0)" stroke-width="1"/>
<line x1="241" y1="560" x2="241" y2="560" stroke="rgb(0,0,0)" stroke-width="1"/>
<line x1="233" y1="560" x2="250" y2="560" stroke="rgb(0,0,0)" stroke-width="1"/>
<line x1="233" y1="531" x2="250" y2="531" stroke="rgb(200,0,0)" stroke-width="1"/>
<rect width="17" height="0" x="254" y="531" style="fill:rgb(240,240,0);stroke:none"/>
<rect width="17" height="0" x="254" y="531" rx="0" ry="0" style="fill:none;stroke-width:1;stroke:rgb(0,0,0)"/>
<line x1="262" y1="70" x2="262" y2="531" stroke="rgb(0,0,0)" stroke-width="1"/>
<line x1="254" y1="70" x2="271" y2="70" stroke="rgb(0,0,0)" stroke-width="1"/>
<line x1="262" y1="560" x2="262" y2="531" stroke="rgb(0,0,0)" stroke-width="1"/>
<line x1="254" y1="560" x2="271" y2="560" stroke="rgb(0,0,0)" stroke-width="1"/>
<line x1="254" y1="531" x2="271" y2="531" stroke="rgb(200,0,0)" stroke-width="1"/>
<rect width="17" height="29" x="275" y="531" style="fill:rgb(240,240,0);stroke:none"/>
<rect width="17" height="29" x="275" y="531" rx="0" ry="0" style="fill:none;stroke-width:1;stroke:rgb(0,0,0)"/>
<line x1="283" y1="70" x2="283" y2="531" stroke="rgb(0,0,0)" stroke-width="1"/>
<line x1="275" y1="70" x2="292" y2="70" stroke="rgb(0,0,0)" stroke-width="1"/>
<line x1="283" y1="560" x2="283" y2="560" stroke="rgb(0,0,0)" stroke-width="1"/>
<line x1="275" y1="560" x2="292" y2="560" stroke="rgb(0,0,0)" stroke-width="1"/>
<line x1="275" y1="531" x2="292" y2="531" stroke="rgb(200,0,0)" stroke-width="1"/>
<rect width="17" height="0" x="296" y="531" style="fill:rgb(240,240,0);stroke:none"/>
<rect width="17" height="0" x="296" y="531" rx="0" ry="0" style="fill:none;stroke-width:1;stroke:rgb(0,0,0)"/>
<line x1="304" y1="85" x2="304" y2="531" stroke="rgb(0,0,0)" stroke-width="1"/>
<line x1="296" y1="85" x2="313" y2="85" stroke="rgb(0,0,0)" stroke-width="1"/>
<line x1="304" y1="560" x2="304" y2="531" stroke="rgb(0,0,0)" stroke-width="1"/>
<line x1="296" y1="560" x2="313" y2="560" stroke="rgb(0,0,0)" stroke-width="1"/>
<line x1="296" y1="531" x2="313" y2="531" stroke="rgb(200,0,0)" stroke-width="1"/>
<rect width="17" height="29" x="317" y="531" style="fill:rgb(240,240,0);stroke:none"/>
<rect width="17" height="29" x="317" y="531" rx="0" ry="0" style="fill:none;stroke-width:1;stroke:rgb(0,0,0)"/>
<line x1="325" y1="531" x2="325" y2="531" stroke="rgb(0,0,0)" stroke-width="1"/>
<line x1="317" y1="531" x2="334" y2="531" stroke="rgb(0,0,0)" stroke-width="1"/>
<line x1="325" y1="560" x2="325" y2="560" stroke="rgb(0,0,0)" stroke-width="1"/>
<line x1="317" y1="560" x2="334" y2="560" stroke="rgb(0,0,0)" stroke-width="1"/>
<line x1="317" y1="531" x2="334" y2="531" stroke="rgb(200,0,0)" stroke-width="1"/>
<rect width="17" height="29" x="338" y="531" style="fill:rgb(240,240,0);stroke:none"/>
<rect width="17" height="29" x="338" y="531" rx="0" ry="0" style="fill:none;stroke-width:1;stroke:rgb(0,0,0)"/>
<line x1="346" y1="531" x2="346" y2="531" stroke="rgb(0,0,0)" stroke-width="1"/>
<line x1="338" y1="531" x2="355" y2="531" stroke="rgb(0,0,0)" stroke-width="1"/>
<line x1="346" y1="560" x2="346" y2="560" stroke="rgb(0,0,0)" stroke-width="1"/>
<line x1="338" y1="560" x2="355" y2="560" stroke="rgb(0,0,0)" stroke-width="1"/>
<line x1="338" y1="531" x2="355" y2="531" stroke="rgb(200,0,0)" stroke-width="1"/>
<rect width="17" height="0" x="359" y="531" style="fill:rgb(240,240,0);stroke:none"/>
<rect width="17" height="0" x="359" y="531" rx="0" ry="0" style="fill:none;stroke-width:1;stroke:rgb(0,0,0)"/>
<line x1="367" y1="531" x2="367" y2="531" stroke="rgb(0,0,0)" stroke-width="1"/>
<line x1="359" y1="531" x2="376" y2="531" stroke="rgb(0,0,0)" stroke-width="1"/>
<line x1="367" y1="531" x2="367" y2="531" stroke="rgb(0,0,0)" stroke-width="1"/>
<line x1="359" y1="531" x2="376" y2="531" stroke="rgb(0,0,0)" stroke-width="1"/>
<line x1="359" y1="531" x2="376" y2="531" stroke="rgb(200,0,0)" stroke-width="1"/>
<rect width="17" height="29" x="380" y="531" style="fill:rgb(240,240,0);stroke:none"/>
<rect width="17" height="29" x="380" y="531" rx="0" ry="0" style="fill:none;stroke-width:1;stroke:rgb(0,0,0)"/>
<line x1="388" y1="531" x2="388" y2="531" stroke="rgb(0,0,0)" stroke-width="1"/>
<line x1="380" y1="531" x2="397" y2="531" stroke="rgb(0,0,0)" stroke-width="1"/>
<line x1="388" y1="560" x2="388" y2="560" stroke="rgb(0,0,0)" stroke-width="1"/>
<line x1="380" y1="560" x2="397" y2="560" stroke="rgb(0,0,0)" stroke-width="1"/>
<line x1="380" y1="531" x2="397" y2="531" stroke="rgb(200,0,0)" stroke-width="1"/>
<rect width="17" height="29" x="401" y="531" style="fill:rgb(240,240,0);stroke:none"/>
<rect width="17" height="29" x="401" y="531" rx="0" ry="0" style="fill:none;stroke-width:1;stroke:rgb(0,0,0)"/>
<line x1="409" y1="531" x2="409" y2="531" stroke="rgb(0,0,0)" stroke-width="1"/>
<line x1="401" y1="531" x2="418" y2="531" stroke="rgb(0,0,0)" stroke-width="1"/>
<line x1="409" y1="560" x2="409" y2="560" stroke="rgb(0,0,0)" stroke-width="1"/>
<line x1="401" y1="560" x2="418" y2="560" stroke="rgb(0,0,0)" stroke-width="1"/>
<line x1="401" y1="531" x2="418" y2="531" stroke="rgb(200,0,0)" stroke-width="1"/>
<rect width="17" height="29" x="422" y="531" style="fill:rgb(240,240,0);stroke:none"/>
<rect width="17" height="29" x="422" y="531" rx="0" ry="0" style="fill:none;stroke-width:1;stroke:rgb(0,0,0)"/>
<line x1="430" y1="531" x2="430" y2="531" stroke="rgb(0,0,0)" stroke-width="1"/>
<line x1="422" y1="531" x2="439" y2="531" stroke="rgb(0,0,0)" stroke-width="1"/>
<line x1="430" y1="560" x2="430" y2="560" stroke="rgb(0,0,0)" stroke-width="1"/>
<line x1="422" y1="560" x2="439" y2="560" stroke="rgb(0,0,0)" stroke-width="1"/>
<line x1="422" y1="560" x2="439" y2="560" stroke="rgb(200,0,0)" stroke-width="1"/>
<rect width="17" height="0" x="443" y="560" style="fill:rgb(240,240,0);stroke:none"/>
<rect width="17" height="0" x="443" y="560" rx="0" ry="0" style="fill:none;stroke-width:1;stroke:rgb(0,0,0)"/>
<line x1="451" y1="531" x2="451" y2="560" stroke="rgb(0,0,0)" stroke-width="1"/>
<line x1="443" y1="531" x2="460" y2="531" stroke="rgb(0,0,0)" stroke-width="1"/>
<line x1="451" y1="560" x2="451" y2="560" stroke="rgb(0,0,0)" stroke-width="1"/>
<line x1="443" y1="560" x2="460" y2="560" stroke="rgb(0,0,0)" stroke-width="1"/>
<line x1="443" y1="560" x2="460" y2="560" stroke="rgb(200,0,0)" stroke-width="1"/>
<rect width="17" height="0" x="464" y="560" style="fill:rgb(240,240,0);stroke:none"/>
<rect width="17" height="0" x="464" y="560" rx="0" ry="0" style="fill:none;stroke-width:1;stroke:rgb(0,0,0)"/>
<line x1="472" y1="531" x2="472" y2="560" stroke="rgb(0,0,0)" stroke-width="1"/>
<line x1="464" y1="531" x2="481" y2="531" stroke="rgb(0,0,0)" stroke-width="1"/>
<line x1="472" y1="560" x2="472" y2="560" stroke="rgb(0,0,0)" stroke-width="1"/>
<line x1="464" y1="560" x2="481" y2="560" stroke="rgb(0,0,0)" stroke-width="1"/>
<line x1="464" y1="560" x2="481" y2="560" stroke="rgb(200,0,0)" stroke-width="1"/>
<rect width="17" height="0" x="485" y="560" style="fill:rgb(240,240,0);stroke:none"/>
<rect width="17" height="0" x="485" y="560" rx="0" ry="0" style="fill:none;stroke-width:1;stroke:rgb(0,0,0)"/>
<line x1="493" y1="560" x2="493" y2="560" stroke="rgb(0,0,0)" stroke-width="1"/>
<line x1="485" y1="560" x2="502" y2="560" stroke="rgb(0,0,0)" stroke-width="1"/>
<line x1="493" y1="560" x2="493" y2="560" stroke="rgb(0,0,0)" stroke-width="1"/>
<line x1="485" y1="560" x2="502" y2="560" stroke="rgb(0,0,0)" stroke-width="1"/>
<line x1="485" y1="560" x2="502" y2="560" stroke="rgb(200,0,0)" stroke-width="1"/>
<rect width="17" height="0" x="506" y="560" style="fill:rgb(240,240,0);stroke:none"/>
<rect width="17" height="0" x="506" y="560" rx="0" ry="0" style="fill:none;stroke-width:1;stroke:rgb(0,0,0)"/>
<line x1="514" y1="560" x2="514" y2="560" stroke="rgb(0,0,0)" stroke-width="1"/>
<line x1="506" y1="560" x2="523" y2="560" stroke="rgb(0,0,0)" stroke-width="1"/>
<line x1="514" y1="560" x2="514" y2="560" stroke="rgb(0,0,0)" stroke-width="1"/>
<line x1="506" y1="560" x2="523" y2="560" stroke="rgb(0,0,0)" stroke-width="1"/>
<line x1="506" y1="560" x2="523" y2="560" stroke="rgb(200,0,0)" stroke-width="1"/>
<rect width="17" height="0" x="527" y="560" style="fill:rgb(240,240,0);stroke:none"/>
<rect width="17" height="0" x="527" y="560" rx="0" ry="0" style="fill:none;stroke-width:1;stroke:rgb(0,0,0)"/>
<line x1="535" y1="560" x2="535" y2="560" stroke="rgb(0,0,0)" stroke-width="1"/>
<line x1="527" y1="560" x2="544" y2="560" stroke="rgb(0,0,0)" stroke-width="1"/>
<line x1="535" y1="560" x2="535" y2="560" stroke="rgb(0,0,0)" stroke-width="1"/>
<line x1="527" y1="560" x2="544" y2="560" stroke="rgb(0,0,0)" stroke-width="1"/>
<line x1="527" y1="560" x2="544" y2="560" stroke="rgb(200,0,0)" stroke-width="1"/>
<rect width="17" height="0" x="548" y="560" style="fill:rgb(240,240,0);stroke:none"/>
<rect width="17" height="0" x="548" y="560" rx="0" ry="0" style="fill:none;stroke-width:1;stroke:rgb(0,0,0)"/>
<line x1="556" y1="560" x2="556" y2="560" stroke="rgb(0,0,0)" stroke-width="1"/>
<line x1="548" y1="560" x2="565" y2="560" stroke="rgb(0,0,0)" stroke-width="1"/>
<line x1="556" y1="560" x2="556" y2="560" stroke="rgb(0,0,0)" stroke-width="1"/>
<line x1="548" y1="560" x2="565" y2="560" stroke="rgb(0,0,0)" stroke-width="1"/>
<line x1="548" y1="560" x2="565" y2="560" stroke="rgb(200,0,0)" stroke-width="1"/>
<rect width="17" height="0" x="569" y="560" style="fill:rgb(240,240,0);stroke:none"/>
<rect width="17" height="0" x="569" y="560" rx="0" ry="0" style="fill:none;stroke-width:1;stroke:rgb(0,0,0)"/>
<line x1="577" y1="560" x2="577" y2="560" stroke="rgb(0,0,0)" stroke-width="1"/>
<line x1="569" y1="560" x2="586" y2="560" stroke="rgb(0,0,0)" stroke-width="1"/>
<line x1="577" y1="560" x2="577" y2="560" stroke="rgb(0,0,0)" stroke-width="1"/>
<line x1="569" y1="560" x2="586" y2="560" stroke="rgb(0,0,0)" stroke-width="1"/>
<line x1="569" y1="560" x2="586" y2="560" stroke="rgb(200,0,0)" stroke-width="1"/>
<rect width="17" height="0" x="590" y="560" style="fill:rgb(240,240,0);stroke:none"/>
<rect width="17" height="0" x="590" y="560" rx="0" ry="0" style="fill:none;stroke-width:1;stroke:rgb(0,0,0)"/>
<line x1="598" y1="560" x2="598" y2="560" stroke="rgb(0,0,0)" stroke-width="1"/>
<line x1="590" y1="560" x2="607" y2="560" stroke="rgb(0,0,0)" stroke-width="1"/>
<line x1="598" y1="560" x2="598" y2="560" stroke="rgb(0,0,0)" stroke-width="1"/>
<line x1="590" y1="560" x2="607" y2="560" stroke="rgb(0,0,0)" stroke-width="1"/>
<line x1="590" y1="560" x2="607" y2="560" stroke="rgb(200,0,0)" stroke-width="1"/>
<rect width="17" height="0" x="611" y="560" style="fill:rgb(240,240,0);stroke:none"/>
<rect width="17" height="0" x="611" y="560" rx="0" ry="0" style="fill:none;stroke-width:1;stroke:rgb(0,0,0)"/>
<line x1="619" y1="560" x2="619" y2="560" stroke="rgb(0,0,0)" stroke-width="1"/>
<line x1="611" y1="560" x2="628" y2="560" stroke="rgb(0,0,0)" stroke-width="1"/>
<line x1="619" y1="560" x2="619" y2="560" stroke="rgb(0,0,0)" stroke-width="1"/>
<line x1="611" y1="560" x2="628" y2="560" stroke="rgb(0,0,0)" stroke-width="1"/>
<line x1="611" y1="560" x2="628" y2="560" stroke="rgb(200,0,0)" stroke-width="1"/>
<rect width="17" height="29" x="632" y="531" style="fill:rgb(240,240,0);stroke:none"/>
<rect width="17" height="29" x="632" y="531" rx="0" ry="0" style="fill:none;stroke-width:1;stroke:rgb(0,0,0)"/>
<line x1="640" y1="531" x2="640" y2="531" stroke="rgb(0,0,0)" stroke-width="1"/>
<line x1="632" y1="531" x2="649" y2="531" stroke="rgb(0,0,0)" stroke-width="1"/>
<line x1="640" y1="560" x2="640" y2="560" stroke="rgb(0,0,0)" stroke-width="1"/>
<line x1="632" y1="560" x2="649" y2="560" stroke="rgb(0,0,0)" stroke-width="1"/>
<line x1="632" y1="560" x2="649" y2="560" stroke="rgb(200,0,0)" stroke-width="1"/>
<rect width="17" height="29" x="653" y="531" style="fill:rgb(240,240,0);stroke:none"/>
<rect width="17" height="29" x="653" y="531" rx="0" ry="0" style="fill:none;stroke-width:1;stroke:rgb(0,0,0)"/>
<line x1="661" y1="531" x2="661" y2="531" stroke="rgb(0,0,0)" stroke-width="1"/>
<line x1="653" y1="531" x2="670" y2="531" stroke="rgb(0,0,0)" stroke-width="1"/>
<line x1="661" y1="560" x2="661" y2="560" stroke="rgb(0,0,0)" stroke-width="1"/>
<line x1="653" y1="560" x2="670" y2="560" stroke="rgb(0,0,0)" stroke-width="1"/>
<line x1="653" y1="531" x2="670" y2="531" stroke="rgb(200,0,0)" stroke-width="1"/>
<rect width="17" height="29" x="674" y="531" style="fill:rgb(240,240,0);stroke:none"/>
<rect width="17" height="29" x="674" y="531" rx="0" ry="0" style="fill:none;stroke-width:1;stroke:rgb(0,0,0)"/>
<line x1="682" y1="531" x2="682" y2="531" stroke="rgb(0,0,0)" stroke-width="1"/>
<line x1="674" y1="531" x2="691" y2="531" stroke="rgb(0,0,0)" stroke-width="1"/>
<line x1="682" y1="560" x2="682" y2="560" stroke="rgb(0,0,0)" stroke-width="1"/>
<line x1="674" y1="560" x2="691" y2="560" stroke="rgb(0,0,0)" stroke-width="1"/>
<line x1="674" y1="531" x2="691" y2="531" stroke="rgb(200,0,0)" stroke-width="1"/>
<rect width="17" height="29" x="695" y="531" style="fill:rgb(240,240,0);stroke:none"/>
<rect width="17" height="29" x="695" y="531" rx="0" ry="0" style="fill:none;stroke-width:1;stroke:rgb(0,0,0)"/>
<line x1="703" y1="531" x2="703" y2="531" stroke="rgb(0,0,0)" stroke-width="1"/>
<line x1="695" y1="531" x2="712" y2="531" stroke="rgb(0,0,0)" stroke-width="1"/>
<line x1="703" y1="560" x2="703" y2="560" stroke="rgb(0,0,0)" stroke-width="1"/>
<line x1="695" y1="560" x2="712" y2="560" stroke="rgb(0,0,0)" stroke-width="1"/>
<line x1="695" y1="560" x2="712" y2="560" stroke="rgb(200,0,0)" stroke-width="1"/>
<rect width="17" height="29" x="716" y="531" style="fill:rgb(240,240,0);stroke:none"/>
<rect width="17" height="29" x="716" y="531" rx="0" ry="0" style="fill:none;stroke-width:1;stroke:rgb(0,0,0)"/>
<line x1="724" y1="531" x2="724" y2="531" stroke="rgb(0,0,0)" stroke-width="1"/>
<line x1="716" y1="531" x2="733" y2="531" stroke="rgb(0,0,0)" stroke-width="1"/>
<line x1="724" y1="560" x2="724" y2="560" stroke="rgb(0,0,0)" stroke-width="1"/>
<line x1="716" y1="560" x2="733" y2="560" stroke="rgb(0,0,0)" stroke-width="1"/>
<line x1="716" y1="560" x2="733" y2="560" stroke="rgb(200,0,0)" stroke-width="1"/>
<rect width="17" height="29" x="737" y="531" style="fill:rgb(240,240,0);stroke:none"/>
<rect width="17" height="29" x="737" y="531" rx="0" ry="0" style="fill:none;stroke-width:1;stroke:rgb(0,0,0)"/>
<line x1="745" y1="531" x2="745" y2="531" stroke="rgb(0,0,0)" stroke-width="1"/>
<line x1="737" y1="531" x2="754" y2="531" stroke="rgb(0,0,0)" stroke-width="1"/>
<line x1="745" y1="560" x2="745" y2="560" stroke="rgb(0,0,0)" stroke-width="1"/>
<line x1="737" y1="560" x2="754" y2="560" stroke="rgb(0,0,0)" stroke-width="1"/>
<line x1="737" y1="560" x2="754" y2="560" stroke="rgb(200,0,0)" stroke-width="1"/>
<line x1="31" y1="448" x2="52" y2="560" stroke="rgb(0,0,200)" stroke-width="1"/>
<line x1="52" y1="560" x2="73" y2="520" stroke="rgb(0,0,200)" stroke-width="1"/>
<line x1="73" y1="520" x2="94" y2="551" stroke="rgb(0,0,200)" stroke-width="1"/>
<line x1="94" y1="551" x2="115" y2="560" stroke="rgb(0,0,200)" stroke-width="1"/>
<line x1="115" y1="560" x2="136" y2="533" stroke="rgb(0,0,200)" stroke-width="1"/>
<line x1="136" y1="533" x2="157" y2="525" stroke="rgb(0,0,200)" stroke-width="1"/>
<line x1="157" y1="525" x2="178" y2="487" stroke="rgb(0,0,200)" stroke-width="1"/>
<line x1="178" y1="487" x2="199" y2="461" stroke="rgb(0,0,200)" stroke-width="1"/>
<line x1="199" y1="461" x2="220" y2="458" stroke="rgb(0,0,200)" stroke-width="1"/>
<line x1="220" y1="458" x2="241" y2="454" stroke="rgb(0,0,200)" stroke-width="1"/>
<line x1="241" y1="454" x2="262" y2="447" stroke="rgb(0,0,200)" stroke-width="1"/>
<line x1="262" y1="447" x2="283" y2="457" stroke="rgb(0,0,200)" stroke-width="1"/>
<line x1="283" y1="457" x2="304" y2="475" stroke="rgb(0,0,200)" stroke-width="1"/>
<line x1="304" y1="475" x2="325" y2="527" stroke="rgb(0,0,200)" stroke-width="1"/>
<line x1="325" y1="527" x2="346" y2="530" stroke="rgb(0,0,200)" stroke-width="1"/>
<line x1="346" y1="530" x2="367" y2="518" stroke="rgb(0,0,200)" stroke-width="1"/>
<line x1="367" y1="518" x2="388" y2="532" stroke="rgb(0,0,200)" stroke-width="1"/>
<line x1="388" y1="532" x2="409" y2="538" stroke="rgb(0,0,200)" stroke-width="1"/>
<line x1="409" y1="538" x2="430" y2="539" stroke="rgb(0,0,200)" stroke-width="1"/>
<line x1="430" y1="539" x2="451" y2="546" stroke="rgb(0,0,200)" stroke-width="1"/>
<line x1="451" y1="546" x2="472" y2="552" stroke="rgb(0,0,200)" stroke-width="1"/>
<line x1="472" y1="552" x2="493" y2="560" stroke="rgb(0,0,200)" stroke-width="1"/>
<line x1="493" y1="560" x2="514" y2="560" stroke="rgb(0,0,200)" stroke-width="1"/>
<line x1="514" y1="560" x2="535" y2="560" stroke="rgb(0,0,200)" stroke-width="1"/>
<line x1="535" y1="560" x2="556" y2="560" stroke="rgb(0,0,200)" stroke-width="1"/>
<line x1="556" y1="560" x2="577" y2="560" stroke="rgb(0,0,200)" stroke-width="1"/>
<line x1="577" y1="560" x2="598" y2="560" stroke="rgb(0,0,200)" stroke-width="1"/>
<line x1="598" y1="560" x2="619" y2="560" stroke="rgb(0,0,200)" stroke-width="1"/>
<line x1="619" y1="560" x2="640" y2="545" stroke="rgb(0,0,200)" stroke-width="1"/>
<line x1="640" y1="545" x2="661" y2="543" stroke="rgb(0,0,200)" stroke-width="1"/>
<line x1="661" y1="543" x2="682" y2="541" stroke="rgb(0,0,200)" stroke-width="1"/>
<line x1="682" y1="541" x2="703" y2="545" stroke="rgb(0,0,200)" stroke-width="1"/>
<line x1="703" y1="545" x2="724" y2="544" stroke="rgb(0,0,200)" stroke-width="1"/>
<line x1="724" y1="544" x2="745" y2="546" stroke="rgb(0,0,200)" stroke-width="1"/>
</svg>
