<?xml version="1.0" standalone="no"?>
<!DOCTYPE svg PUBLIC "-//W3C//DTD SVG 1.1//EN" "http://www.w3.org/Graphics/SVG/1.1/DTD/svg11.dtd">
<svg width="800" height="600" version="1.1" xmlns="http://www.w3.org/2000/svg">
<rect width="800" height="600" x="0" y="0" style="fill:rgb(238,238,238);stroke:none"/>
<rect width="800" height="600" x="0" y="0" style="fill:rgb(255,255,255);stroke:none"/>
<text x="2" y="566" fill="rgb(0,0,0)" font-family="Arial" font-size="12">0</text>
<text x="2" y="495" fill="rgb(0,0,0)" font-family="Arial" font-size="12">20</text>
<text x="2" y="424" fill="rgb(0,0,0)" font-family="Arial" font-size="12">40</text>
<text x="2" y="353" fill="rgb(0,0,0)" font-family="Arial" font-size="12">60</text>
<text x="2" y="282" fill="rgb(0,0,0)" font-family="Arial" font-size="12">80</text>
<text x="2" y="210" fill="rgb(0,0,0)" font-family="Arial" font-size="12">100</text>
<text x="2" y="139" fill="rgb(0,0,0)" font-family="Arial" font-size="12">120</text>
<text x="2" y="68" fill="rgb(0,0,0)" font-family="Arial" font-size="12">140</text>
<text x="276" y="30" fill="rgb(0,0,0)" font-family="Arial" font-size="12">Quality score distribution over all sequences</text>
<line x1="29" y1="560" x2="790" y2="560" stroke="rgb(0,0,0)" stroke-width="1"/>
<line x1="29" y1="560" x2="29" y2="40" stroke="rgb(0,0,0)" stroke-width="1"/>
<text x="286" y="595" fill="rgb(0,0,0)" font-family="Arial" font-size="12">Mean Sequence Quality (Phred Score)</text>
<text x="40" y="575" fill="rgb(0,0,0)" font-family="Arial" font-size="12">0</text>
<rect width="30" height="520" x="59" y="40" style="fill:rgb(230,230,230);stroke:none"/>
<text x="70" y="575" fill="rgb(0,0,0)" font-family="Arial" font-size="12">1</text>
<text x="100" y="575" fill="rgb(0,0,0)" font-family="Arial" font-size="12">2</text>
<rect width="30" height="520" x="119" y="40" style="fill:rgb(230,230,230);stroke:none"/>
<text x="130" y="575" fill="rgb(0,0,0)" font-family="Arial" font-size="12">3</text>
<text x="160" y="575" fill="rgb(0,0,0)" font-family="Arial" font-size="12">4</text>
<rect width="30" height="520" x="179" y="40" style="fill:rgb(230,230,230);stroke:none"/>
<text x="190" y="575" fill="rgb(0,0,0)" font-family="Arial" font-size="12">5</text>
<text x="220" y="575" fill="rgb(0,0,0)" font-family="Arial" font-size="12">6</text>
<rect width="30" height="520" x="239" y="40" style="fill:rgb(230,230,230);stroke:none"/>
<text x="250" y="575" fill="rgb(0,0,0)" font-family="Arial" font-size="12">7</text>
<text x="280" y="575" fill="rgb(0,0,0)" font-family="Arial" font-size="12">8</text>
<rect width="30" height="520" x="299" y="40" style="fill:rgb(230,230,230);stroke:none"/>
<text x="310" y="575" fill="rgb(0,0,0)" font-family="Arial" font-size="12">9</text>
<text x="336" y="575" fill="rgb(0,0,0)" font-family="Arial" font-size="12">10</text>
<rect width="30" height="520" x="359" y="40" style="fill:rgb(230,230,230);stroke:none"/>
<text x="366" y="575" fill="rgb(0,0,0)" font-family="Arial" font-size="12">11</text>
<text x="396" y="575" fill="rgb(0,0,0)" font-family="Arial" font-size="12">12</text>
<rect width="30" height="520" x="419" y="40" style="fill:rgb(230,230,230);stroke:none"/>
<text x="426" y="575" fill="rgb(0,0,0)" font-family="Arial" font-size="12">13</text>
<text x="456" y="575" fill="rgb(0,0,0)" font-family="Arial" font-size="12">14</text>
<rect width="30" height="520" x="479" y="40" style="fill:rgb(230,230,230);stroke:none"/>
<text x="486" y="575" fill="rgb(0,0,0)" font-family="Arial" font-size="12">15</text>
<text x="516" y="575" fill="rgb(0,0,0)" font-family="Arial" font-size="12">16</text>
<rect width="30" height="520" x="539" y="40" style="fill:rgb(230,230,230);stroke:none"/>
<text x="546" y="575" fill="rgb(0,0,0)" font-family="Arial" font-size="12">17</text>
<text x="576" y="575" fill="rgb(0,0,0)" font-family="Arial" font-size="12">18</text>
<rect width="30" height="520" x="599" y="40" style="fill:rgb(230,230,230);stroke:none"/>
<text x="606" y="575" fill="rgb(0,0,0)" font-family="Arial" font-size="12">19</text>
<text x="636" y="575" fill="rgb(0,0,0)" font-family="Arial" font-size="12">20</text>
<rect width="30" height="520" x="659" y="40" style="fill:rgb(230,230,230);stroke:none"/>
<text x="666" y="575" fill="rgb(0,0,0)" font-family="Arial" font-size="12">21</text>
<text x="696" y="575" fill="rgb(0,0,0)" font-family="Arial" font-size="12">22</text>
<rect width="30" height="520" x="719" y="40" style="fill:rgb(230,230,230);stroke:none"/>
<text x="726" y="575" fill="rgb(0,0,0)" font-family="Arial" font-size="12">23</text>
<text x="756" y="575" fill="rgb(0,0,0)" font-family="Arial" font-size="12">24</text>
<line x1="29" y1="560" x2="790" y2="560" stroke="rgb(180,180,180)" stroke-width="1"/>
<line x1="29" y1="489" x2="790" y2="489" stroke="rgb(180,180,180)" stroke-width="1"/>
<line x1="29" y1="418" x2="790" y2="418" stroke="rgb(180,180,180)" stroke-width="1"/>
<line x1="29" y1="347" x2="790" y2="347" stroke="rgb(180,180,180)" stroke-width="1"/>
<line x1="29" y1="276" x2="790" y2="276" stroke="rgb(180,180,180)" stroke-width="1"/>
<line x1="29" y1="204" x2="790" y2="204" stroke="rgb(180,180,180)" stroke-width="1"/>
<line x1="29" y1="133" x2="790" y2="133" stroke="rgb(180,180,180)" stroke-width="1"/>
<line x1="29" y1="62" x2="790" y2="62" stroke="rgb(180,180,180)" stroke-width="1"/>
<line x1="44" y1="40" x2="74" y2="382" stroke="rgb(136,34,85)" stroke-width="1"/>
<line x1="74" y1="382" x2="104" y2="557" stroke="rgb(136,34,85)" stroke-width="1"/>
<line x1="104" y1="557" x2="134" y2="560" stroke="rgb(136,34,85)" stroke-width="1"/>
<line x1="134" y1="560" x2="164" y2="557" stroke="rgb(136,34,85)" stroke-width="1"/>
<line x1="164" y1="557" x2="194" y2="557" stroke="rgb(136,34,85)" stroke-width="1"/>
<line x1="194" y1="557" x2="224" y2="532" stroke="rgb(136,34,85)" stroke-width="1"/>
<line x1="224" y1="532" x2="254" y2="514" stroke="rgb(136,34,85)" stroke-width="1"/>
<line x1="254" y1="514" x2="284" y2="518" stroke="rgb(136,34,85)" stroke-width="1"/>
<line x1="284" y1="518" x2="314" y2="546" stroke="rgb(136,34,85)" stroke-width="1"/>
<line x1="314" y1="546" x2="344" y2="546" stroke="rgb(136,34,85)" stroke-width="1"/>
<line x1="344" y1="546" x2="374" y2="553" stroke="rgb(136,34,85)" stroke-width="1"/>
<line x1="374" y1="553" x2="404" y2="560" stroke="rgb(136,34,85)" stroke-width="1"/>
<line x1="404" y1="560" x2="434" y2="557" stroke="rgb(136,34,85)" stroke-width="1"/>
<line x1="434" y1="557" x2="464" y2="553" stroke="rgb(136,34,85)" stroke-width="1"/>
<line x1="464" y1="553" x2="494" y2="560" stroke="rgb(136,34,85)" stroke-width="1"/>
<line x1="494" y1="560" x2="524" y2="560" stroke="rgb(136,34,85)" stroke-width="1"/>
<line x1="524" y1="560" x2="554" y2="553" stroke="rgb(136,34,85)" stroke-width="1"/>
<line x1="554" y1="553" x2="584" y2="557" stroke="rgb(136,34,85)" stroke-width="1"/>
<line x1="584" y1="557" x2="614" y2="560" stroke="rgb(136,34,85)" stroke-width="1"/>
<line x1="614" y1="560" x2="644" y2="560" stroke="rgb(136,34,85)" stroke-width="1"/>
<line x1="644" y1="560" x2="674" y2="560" stroke="rgb(136,34,85)" stroke-width="1"/>
<line x1="674" y1="560" x2="704" y2="560" stroke="rgb(136,34,85)" stroke-width="1"/>
<line x1="704" y1="560" x2="734" y2="560" stroke="rgb(136,34,85)" stroke-width="1"/>
<line x1="734" y1="560" x2="764" y2="557" stroke="rgb(136,34,85)" stroke-width="1"/>
<rect width="177" height="23" x="613" y="40" style="fill:rgb(255,255,255);stroke:none"/>
<rect width="177" height="23" x="613" y="40" rx="0" ry="0" style="fill:none;stroke-width:1;stroke:rgb(192,192,192)"/>
<text x="616" y="55" fill="rgb(136,34,85)" font-family="Arial" font-size="12" font-weight="bold">Average Quality per read</text>
</svg>
