<?xml version="1.0" standalone="no"?>
<!DOCTYPE svg PUBLIC "-//W3C//DTD SVG 1.1//EN" "http://www.w3.org/Graphics/SVG/1.1/DTD/svg11.dtd">
<svg width="800" height="600" version="1.1" xmlns="http://www.w3.org/2000/svg">
<rect width="800" height="600" x="0" y="0" style="fill:rgb(238,238,238);stroke:none"/>
<rect width="800" height="600" x="0" y="0" style="fill:rgb(255,255,255);stroke:none"/>
<text x="2" y="560" fill="rgb(0,0,0)" font-family="Arial" font-size="12">1</text>
<text x="357" y="30" fill="rgb(0,0,0)" font-family="Arial" font-size="12">Quality per tile</text>
<line x1="13" y1="560" x2="790" y2="560" stroke="rgb(0,0,0)" stroke-width="1"/>
<line x1="13" y1="560" x2="13" y2="40" stroke="rgb(0,0,0)" stroke-width="1"/>
<text x="339" y="595" fill="rgb(0,0,0)" font-family="Arial" font-size="12">Position in read (bp)</text>
<text x="20" y="575" fill="rgb(0,0,0)" font-family="Arial" font-size="12">1</text>
<text x="42" y="575" fill="rgb(0,0,0)" font-family="Arial" font-size="12">2</text>
<text x="64" y="575" fill="rgb(0,0,0)" font-family="Arial" font-size="12">3</text>
<text x="86" y="575" fill="rgb(0,0,0)" font-family="Arial" font-size="12">4</text>
<text x="108" y="575" fill="rgb(0,0,0)" font-family="Arial" font-size="12">5</text>
<text x="130" y="575" fill="rgb(0,0,0)" font-family="Arial" font-size="12">6</text>
<text x="152" y="575" fill="rgb(0,0,0)" font-family="Arial" font-size="12">7</text>
<text x="174" y="575" fill="rgb(0,0,0)" font-family="Arial" font-size="12">8</text>
<text x="196" y="575" fill="rgb(0,0,0)" font-family="Arial" font-size="12">9</text>
<text x="214" y="575" fill="rgb(0,0,0)" font-family="Arial" font-size="12">10</text>
<text x="236" y="575" fill="rgb(0,0,0)" font-family="Arial" font-size="12">11</text>
<text x="258" y="575" fill="rgb(0,0,0)" font-family="Arial" font-size="12">12</text>
<text x="280" y="575" fill="rgb(0,0,0)" font-family="Arial" font-size="12">13</text>
<text x="302" y="575" fill="rgb(0,0,0)" font-family="Arial" font-size="12">14</text>
<text x="324" y="575" fill="rgb(0,0,0)" font-family="Arial" font-size="12">15</text>
<text x="346" y="575" fill="rgb(0,0,0)" font-family="Arial" font-size="12">16</text>
<text x="368" y="575" fill="rgb(0,0,0)" font-family="Arial" font-size="12">17</text>
<text x="390" y="575" fill="rgb(0,0,0)" font-family="Arial" font-size="12">18</text>
<text x="412" y="575" fill="rgb(0,0,0)" font-family="Arial" font-size="12">19</text>
<text x="434" y="575" fill="rgb(0,0,0)" font-family="Arial" font-size="12">20</text>
<text x="456" y="575" fill="rgb(0,0,0)" font-family="Arial" font-size="12">21</text>
<text x="478" y="575" fill="rgb(0,0,0)" font-family="Arial" font-size="12">22</text>
<text x="500" y="575" fill="rgb(0,0,0)" font-family="Arial" font-size="12">23</text>
<text x="522" y="575" fill="rgb(0,0,0)" font-family="Arial" font-size="12">24</text>
<text x="544" y="575" fill="rgb(0,0,0)" font-family="Arial" font-size="12">25</text>
<text x="566" y="575" fill="rgb(0,0,0)" font-family="Arial" font-size="12">26</text>
<text x="588" y="575" fill="rgb(0,0,0)" font-family="Arial" font-size="12">27</text>
<text x="610" y="575" fill="rgb(0,0,0)" font-family="Arial" font-size="12">28</text>
<text x="632" y="575" fill="rgb(0,0,0)" font-family="Arial" font-size="12">29</text>
<text x="654" y="575" fill="rgb(0,0,0)" font-family="Arial" font-size="12">30</text>
<text x="676" y="575" fill="rgb(0,0,0)" font-family="Arial" font-size="12">31</text>
<text x="698" y="575" fill="rgb(0,0,0)" font-family="Arial" font-size="12">32</text>
<text x="720" y="575" fill="rgb(0,0,0)" font-family="Arial" font-size="12">33</text>
<text x="742" y="575" fill="rgb(0,0,0)" font-family="Arial" font-size="12">34</text>
<text x="764" y="575" fill="rgb(0,0,0)" font-family="Arial" font-size="12">35</text>
<rect width="22" height="520" x="13" y="40" style="fill:rgb(0,0,200);stroke:none"/>
<rect width="22" height="520" x="35" y="40" style="fill:rgb(0,0,200);stroke:none"/>
<rect width="22" height="520" x="57" y="40" style="fill:rgb(0,0,200);stroke:none"/>
<rect width="22" height="520" x="79" y="40" style="fill:rgb(0,0,200);stroke:none"/>
<rect width="22" height="520" x="101" y="40" style="fill:rgb(0,0,200);stroke:none"/>
<rect width="22" height="520" x="123" y="40" style="fill:rgb(0,0,200);stroke:none"/>
<rect width="22" height="520" x="145" y="40" style="fill:rgb(0,0,200);stroke:none"/>
<rect width="22" height="520" x="167" y="40" style="fill:rgb(0,0,200);stroke:none"/>
<rect width="22" height="520" x="189" y="40" style="fill:rgb(0,0,200);stroke:none"/>
<rect width="22" height="520" x="211" y="40" style="fill:rgb(0,0,200);stroke:none"/>
<rect width="22" height="520" x="233" y="40" style="fill:rgb(0,0,200);stroke:none"/>
<rect width="22" height="520" x="255" y="40" style="fill:rgb(0,0,200);stroke:none"/>
<rect width="22" height="520" x="277" y="40" style="fill:rgb(0,0,200);stroke:none"/>
<rect width="22" height="520" x="299" y="40" style="fill:rgb(0,0,200);stroke:none"/>
<rect width="22" height="520" x="321" y="40" style="fill:rgb(0,0,200);stroke:none"/>
<rect width="22" height="520" x="343" y="40" style="fill:rgb(0,0,200);stroke:none"/>
<rect width="22" height="520" x="365" y="40" style="fill:rgb(0,0,200);stroke:none"/>
<rect width="22" height="520" x="387" y="40" style="fill:rgb(0,0,200);stroke:none"/>
<rect width="22" height="520" x="409" y="40" style="fill:rgb(0,0,200);stroke:none"/>
<rect width="22" height="520" x="431" y="40" style="fill:rgb(0,0,200);stroke:none"/>
<rect width="22" height="520" x="453" y="40" style="fill:rgb(0,0,200);stroke:none"/>
<rect width="22" height="520" x="475" y="40" style="fill:rgb(0,0,200);stroke:none"/>
<rect width="22" height="520" x="497" y="40" style="fill:rgb(0,0,200);stroke:none"/>
<rect width="22" height="520" x="519" y="40" style="fill:rgb(0,0,200);stroke:none"/>
<rect width="22" height="520" x="541" y="40" style="fill:rgb(0,0,200);stroke:none"/>
<rect width="22" height="520" x="563" y="40" style="fill:rgb(0,0,200);stroke:none"/>
<rect width="22" height="520" x="585" y="40" style="fill:rgb(0,0,200);stroke:none"/>
<rect width="22" height="520" x="607" y="40" style="fill:rgb(0,0,200);stroke:none"/>
<rect width="22" height="520" x="629" y="40" style="fill:rgb(0,0,200);stroke:none"/>
<rect width="22" height="520" x="651" y="40" style="fill:rgb(0,0,200);stroke:none"/>
<rect width="22" height="520" x="673" y="40" style="fill:rgb(0,0,200);stroke:none"/>
<rect width="22" height="520" x="695" y="40" style="fill:rgb(0,0,200);stroke:none"/>
<rect width="22" height="520" x="717" y="40" style="fill:rgb(0,0,200);stroke:none"/>
<rect width="22" height="520" x="739" y="40" style="fill:rgb(0,0,200);stroke:none"/>
<rect width="22" height="520" x="761" y="40" style="fill:rgb(0,0,200);stroke:none"/>
</svg>
