<?xml version="1.0" standalone="no"?>
<!DOCTYPE svg PUBLIC "-//W3C//DTD SVG 1.1//EN" "http://www.w3.org/Graphics/SVG/1.1/DTD/svg11.dtd">
<svg width="800" height="600" version="1.1" xmlns="http://www.w3.org/2000/svg">
<rect width="800" height="600" x="0" y="0" style="fill:rgb(238,238,238);stroke:none"/>
<rect width="800" height="600" x="0" y="0" style="fill:rgb(255,255,255);stroke:none"/>
<text x="2" y="560" fill="rgb(0,0,0)" font-family="Arial" font-size="12">3</text>
<text x="357" y="30" fill="rgb(0,0,0)" font-family="Arial" font-size="12">Quality per tile</text>
<line x1="13" y1="560" x2="790" y2="560" stroke="rgb(0,0,0)" stroke-width="1"/>
<line x1="13" y1="560" x2="13" y2="40" stroke="rgb(0,0,0)" stroke-width="1"/>
<text x="339" y="595" fill="rgb(0,0,0)" font-family="Arial" font-size="12">Position in read (bp)</text>
<text x="19" y="575" fill="rgb(0,0,0)" font-family="Arial" font-size="12">1</text>
<text x="40" y="575" fill="rgb(0,0,0)" font-family="Arial" font-size="12">2</text>
<text x="61" y="575" fill="rgb(0,0,0)" font-family="Arial" font-size="12">3</text>
<text x="82" y="575" fill="rgb(0,0,0)" font-family="Arial" font-size="12">4</text>
<text x="103" y="575" fill="rgb(0,0,0)" font-family="Arial" font-size="12">5</text>
<text x="124" y="575" fill="rgb(0,0,0)" font-family="Arial" font-size="12">6</text>
<text x="145" y="575" fill="rgb(0,0,0)" font-family="Arial" font-size="12">7</text>
<text x="166" y="575" fill="rgb(0,0,0)" font-family="Arial" font-size="12">8</text>
<text x="187" y="575" fill="rgb(0,0,0)" font-family="Arial" font-size="12">9</text>
<text x="204" y="575" fill="rgb(0,0,0)" font-family="Arial" font-size="12">10</text>
<text x="246" y="575" fill="rgb(0,0,0)" font-family="Arial" font-size="12">12</text>
<text x="288" y="575" fill="rgb(0,0,0)" font-family="Arial" font-size="12">14</text>
<text x="330" y="575" fill="rgb(0,0,0)" font-family="Arial" font-size="12">16</text>
<text x="372" y="575" fill="rgb(0,0,0)" font-family="Arial" font-size="12">18</text>
<text x="414" y="575" fill="rgb(0,0,0)" font-family="Arial" font-size="12">20</text>
<text x="456" y="575" fill="rgb(0,0,0)" font-family="Arial" font-size="12">22</text>
<text x="498" y="575" fill="rgb(0,0,0)" font-family="Arial" font-size="12">24</text>
<text x="540" y="575" fill="rgb(0,0,0)" font-family="Arial" font-size="12">26</text>
<text x="582" y="575" fill="rgb(0,0,0)" font-family="Arial" font-size="12">28</text>
<text x="624" y="575" fill="rgb(0,0,0)" font-family="Arial" font-size="12">30</text>
<text x="666" y="575" fill="rgb(0,0,0)" font-family="Arial" font-size="12">32</text>
<text x="708" y="575" fill="rgb(0,0,0)" font-family="Arial" font-size="12">34</text>
<text x="750" y="575" fill="rgb(0,0,0)" font-family="Arial" font-size="12">36</text>
<rect width="21" height="520" x="13" y="40" style="fill:rgb(0,0,200);stroke:none"/>
<rect width="21" height="520" x="34" y="40" style="fill:rgb(0,0,200);stroke:none"/>
<rect width="21" height="520" x="55" y="40" style="fill:rgb(0,0,200);stroke:none"/>
<rect width="21" height="520" x="76" y="40" style="fill:rgb(0,0,200);stroke:none"/>
<rect width="21" height="520" x="97" y="40" style="fill:rgb(0,0,200);stroke:none"/>
<rect width="21" height="520" x="118" y="40" style="fill:rgb(0,0,200);stroke:none"/>
<rect width="21" height="520" x="139" y="40" style="fill:rgb(0,0,200);stroke:none"/>
<rect width="21" height="520" x="160" y="40" style="fill:rgb(0,0,200);stroke:none"/>
<rect width="21" height="520" x="181" y="40" style="fill:rgb(0,0,200);stroke:none"/>
<rect width="21" height="520" x="202" y="40" style="fill:rgb(0,0,200);stroke:none"/>
<rect width="21" height="520" x="223" y="40" style="fill:rgb(0,0,200);stroke:none"/>
<rect width="21" height="520" x="244" y="40" style="fill:rgb(0,0,200);stroke:none"/>
<rect width="21" height="520" x="265" y="40" style="fill:rgb(0,0,200);stroke:none"/>
<rect width="21" height="520" x="286" y="40" style="fill:rgb(0,0,200);stroke:none"/>
<rect width="21" height="520" x="307" y="40" style="fill:rgb(0,0,200);stroke:none"/>
<rect width="21" height="520" x="328" y="40" style="fill:rgb(0,0,200);stroke:none"/>
<rect width="21" height="520" x="349" y="40" style="fill:rgb(0,0,200);stroke:none"/>
<rect width="21" height="520" x="370" y="40" style="fill:rgb(0,0,200);stroke:none"/>
<rect width="21" height="520" x="391" y="40" style="fill:rgb(0,0,200);stroke:none"/>
<rect width="21" height="520" x="412" y="40" style="fill:rgb(0,0,200);stroke:none"/>
<rect width="21" height="520" x="433" y="40" style="fill:rgb(0,0,200);stroke:none"/>
<rect width="21" height="520" x="454" y="40" style="fill:rgb(0,0,200);stroke:none"/>
<rect width="21" height="520" x="475" y="40" style="fill:rgb(0,0,200);stroke:none"/>
<rect width="21" height="520" x="496" y="40" style="fill:rgb(0,0,200);stroke:none"/>
<rect width="21" height="520" x="517" y="40" style="fill:rgb(0,0,200);stroke:none"/>
<rect width="21" height="520" x="538" y="40" style="fill:rgb(0,0,200);stroke:none"/>
<rect width="21" height="520" x="559" y="40" style="fill:rgb(0,0,200);stroke:none"/>
<rect width="21" height="520" x="580" y="40" style="fill:rgb(0,0,200);stroke:none"/>
<rect width="21" height="520" x="601" y="40" style="fill:rgb(0,0,200);stroke:none"/>
<rect width="21" height="520" x="622" y="40" style="fill:rgb(0,0,200);stroke:none"/>
<rect width="21" height="520" x="643" y="40" style="fill:rgb(0,0,200);stroke:none"/>
<rect width="21" height="520" x="664" y="40" style="fill:rgb(0,0,200);stroke:none"/>
<rect width="21" height="520" x="685" y="40" style="fill:rgb(0,0,200);stroke:none"/>
<rect width="21" height="520" x="706" y="40" style="fill:rgb(0,0,200);stroke:none"/>
<rect width="21" height="520" x="727" y="40" style="fill:rgb(0,0,200);stroke:none"/>
<rect width="21" height="520" x="748" y="40" style="fill:rgb(0,0,200);stroke:none"/>
</svg>
