<?xml version="1.0" standalone="no"?>
<!DOCTYPE svg PUBLIC "-//W3C//DTD SVG 1.1//EN" "http://www.w3.org/Graphics/SVG/1.1/DTD/svg11.dtd">
<svg width="800" height="600" version="1.1" xmlns="http://www.w3.org/2000/svg">
<rect width="800" height="600" x="0" y="0" style="fill:rgb(238,238,238);stroke:none"/>
<rect width="800" height="600" x="0" y="0" style="fill:rgb(255,255,255);stroke:none"/>
<text x="2" y="566" fill="rgb(0,0,0)" font-family="Arial" font-size="12">0</text>
<text x="2" y="507" fill="rgb(0,0,0)" font-family="Arial" font-size="12">5</text>
<text x="2" y="448" fill="rgb(0,0,0)" font-family="Arial" font-size="12">10</text>
<text x="2" y="389" fill="rgb(0,0,0)" font-family="Arial" font-size="12">15</text>
<text x="2" y="330" fill="rgb(0,0,0)" font-family="Arial" font-size="12">20</text>
<text x="2" y="271" fill="rgb(0,0,0)" font-family="Arial" font-size="12">25</text>
<text x="2" y="212" fill="rgb(0,0,0)" font-family="Arial" font-size="12">30</text>
<text x="2" y="153" fill="rgb(0,0,0)" font-family="Arial" font-size="12">35</text>
<text x="2" y="94" fill="rgb(0,0,0)" font-family="Arial" font-size="12">40</text>
<text x="272" y="30" fill="rgb(0,0,0)" font-family="Arial" font-size="12">Quality score distribution over all sequences</text>
<line x1="21" y1="560" x2="790" y2="560" stroke="rgb(0,0,0)" stroke-width="1"/>
<line x1="21" y1="560" x2="21" y2="40" stroke="rgb(0,0,0)" stroke-width="1"/>
<text x="286" y="595" fill="rgb(0,0,0)" font-family="Arial" font-size="12">Mean Sequence Quality (Phred Score)</text>
<text x="38" y="575" fill="rgb(0,0,0)" font-family="Arial" font-size="12">18</text>
<rect width="51" height="520" x="72" y="40" style="fill:rgb(230,230,230);stroke:none"/>
<text x="89" y="575" fill="rgb(0,0,0)" font-family="Arial" font-size="12">19</text>
<text x="140" y="575" fill="rgb(0,0,0)" font-family="Arial" font-size="12">20</text>
<rect width="51" height="520" x="174" y="40" style="fill:rgb(230,230,230);stroke:none"/>
<text x="191" y="575" fill="rgb(0,0,0)" font-family="Arial" font-size="12">21</text>
<text x="242" y="575" fill="rgb(0,0,0)" font-family="Arial" font-size="12">22</text>
<rect width="51" height="520" x="276" y="40" style="fill:rgb(230,230,230);stroke:none"/>
<text x="293" y="575" fill="rgb(0,0,0)" font-family="Arial" font-size="12">23</text>
<text x="344" y="575" fill="rgb(0,0,0)" font-family="Arial" font-size="12">24</text>
<rect width="51" height="520" x="378" y="40" style="fill:rgb(230,230,230);stroke:none"/>
<text x="395" y="575" fill="rgb(0,0,0)" font-family="Arial" font-size="12">25</text>
<text x="446" y="575" fill="rgb(0,0,0)" font-family="Arial" font-size="12">26</text>
<rect width="51" height="520" x="480" y="40" style="fill:rgb(230,230,230);stroke:none"/>
<text x="497" y="575" fill="rgb(0,0,0)" font-family="Arial" font-size="12">27</text>
<text x="548" y="575" fill="rgb(0,0,0)" font-family="Arial" font-size="12">28</text>
<rect width="51" height="520" x="582" y="40" style="fill:rgb(230,230,230);stroke:none"/>
<text x="599" y="575" fill="rgb(0,0,0)" font-family="Arial" font-size="12">29</text>
<text x="650" y="575" fill="rgb(0,0,0)" font-family="Arial" font-size="12">30</text>
<rect width="51" height="520" x="684" y="40" style="fill:rgb(230,230,230);stroke:none"/>
<text x="701" y="575" fill="rgb(0,0,0)" font-family="Arial" font-size="12">31</text>
<text x="752" y="575" fill="rgb(0,0,0)" font-family="Arial" font-size="12">32</text>
<line x1="21" y1="560" x2="790" y2="560" stroke="rgb(180,180,180)" stroke-width="1"/>
<line x1="21" y1="501" x2="790" y2="501" stroke="rgb(180,180,180)" stroke-width="1"/>
<line x1="21" y1="442" x2="790" y2="442" stroke="rgb(180,180,180)" stroke-width="1"/>
<line x1="21" y1="383" x2="790" y2="383" stroke="rgb(180,180,180)" stroke-width="1"/>
<line x1="21" y1="324" x2="790" y2="324" stroke="rgb(180,180,180)" stroke-width="1"/>
<line x1="21" y1="265" x2="790" y2="265" stroke="rgb(180,180,180)" stroke-width="1"/>
<line x1="21" y1="206" x2="790" y2="206" stroke="rgb(180,180,180)" stroke-width="1"/>
<line x1="21" y1="147" x2="790" y2="147" stroke="rgb(180,180,180)" stroke-width="1"/>
<line x1="21" y1="88" x2="790" y2="88" stroke="rgb(180,180,180)" stroke-width="1"/>
<line x1="46" y1="549" x2="97" y2="560" stroke="rgb(136,34,85)" stroke-width="1"/>
<line x1="97" y1="560" x2="148" y2="525" stroke="rgb(136,34,85)" stroke-width="1"/>
<line x1="148" y1="525" x2="199" y2="549" stroke="rgb(136,34,85)" stroke-width="1"/>
<line x1="199" y1="549" x2="250" y2="513" stroke="rgb(136,34,85)" stroke-width="1"/>
<line x1="250" y1="513" x2="301" y2="490" stroke="rgb(136,34,85)" stroke-width="1"/>
<line x1="301" y1="490" x2="352" y2="407" stroke="rgb(136,34,85)" stroke-width="1"/>
<line x1="352" y1="407" x2="403" y2="395" stroke="rgb(136,34,85)" stroke-width="1"/>
<line x1="403" y1="395" x2="454" y2="277" stroke="rgb(136,34,85)" stroke-width="1"/>
<line x1="454" y1="277" x2="505" y2="277" stroke="rgb(136,34,85)" stroke-width="1"/>
<line x1="505" y1="277" x2="556" y2="194" stroke="rgb(136,34,85)" stroke-width="1"/>
<line x1="556" y1="194" x2="607" y2="40" stroke="rgb(136,34,85)" stroke-width="1"/>
<line x1="607" y1="40" x2="658" y2="52" stroke="rgb(136,34,85)" stroke-width="1"/>
<line x1="658" y1="52" x2="709" y2="241" stroke="rgb(136,34,85)" stroke-width="1"/>
<line x1="709" y1="241" x2="760" y2="395" stroke="rgb(136,34,85)" stroke-width="1"/>
<rect width="177" height="23" x="613" y="40" style="fill:rgb(255,255,255);stroke:none"/>
<rect width="177" height="23" x="613" y="40" rx="0" ry="0" style="fill:none;stroke-width:1;stroke:rgb(192,192,192)"/>
<text x="616" y="55" fill="rgb(136,34,85)" font-family="Arial" font-size="12" font-weight="bold">Average Quality per read</text>
</svg>
