<?xml version="1.0" standalone="no"?>
<!DOCTYPE svg PUBLIC "-//W3C//DTD SVG 1.1//EN" "http://www.w3.org/Graphics/SVG/1.1/DTD/svg11.dtd">
<svg width="800" height="600" version="1.1" xmlns="http://www.w3.org/2000/svg">
<rect width="800" height="600" x="0" y="0" style="fill:rgb(238,238,238);stroke:none"/>
<rect width="800" height="600" x="0" y="0" style="fill:rgb(255,255,255);stroke:none"/>
<text x="2" y="566" fill="rgb(0,0,0)" font-family="Arial" font-size="12">0</text>
<text x="2" y="514" fill="rgb(0,0,0)" font-family="Arial" font-size="12">25</text>
<text x="2" y="462" fill="rgb(0,0,0)" font-family="Arial" font-size="12">50</text>
<text x="2" y="410" fill="rgb(0,0,0)" font-family="Arial" font-size="12">75</text>
<text x="2" y="358" fill="rgb(0,0,0)" font-family="Arial" font-size="12">100</text>
<text x="2" y="305" fill="rgb(0,0,0)" font-family="Arial" font-size="12">125</text>
<text x="2" y="253" fill="rgb(0,0,0)" font-family="Arial" font-size="12">150</text>
<text x="2" y="201" fill="rgb(0,0,0)" font-family="Arial" font-size="12">175</text>
<text x="2" y="149" fill="rgb(0,0,0)" font-family="Arial" font-size="12">200</text>
<text x="2" y="97" fill="rgb(0,0,0)" font-family="Arial" font-size="12">225</text>
<text x="254" y="30" fill="rgb(0,0,0)" font-family="Arial" font-size="12">Distribution of sequence lengths over all sequences</text>
<line x1="29" y1="560" x2="790" y2="560" stroke="rgb(0,0,0)" stroke-width="1"/>
<line x1="29" y1="560" x2="29" y2="40" stroke="rgb(0,0,0)" stroke-width="1"/>
<text x="332" y="595" fill="rgb(0,0,0)" font-family="Arial" font-size="12">Sequence Length (bp)</text>
<text x="147" y="575" fill="rgb(0,0,0)" font-family="Arial" font-size="12">35</text>
<rect width="253" height="520" x="282" y="40" style="fill:rgb(230,230,230);stroke:none"/>
<text x="400" y="575" fill="rgb(0,0,0)" font-family="Arial" font-size="12">36</text>
<text x="653" y="575" fill="rgb(0,0,0)" font-family="Arial" font-size="12">37</text>
<line x1="29" y1="560" x2="790" y2="560" stroke="rgb(180,180,180)" stroke-width="1"/>
<line x1="29" y1="508" x2="790" y2="508" stroke="rgb(180,180,180)" stroke-width="1"/>
<line x1="29" y1="456" x2="790" y2="456" stroke="rgb(180,180,180)" stroke-width="1"/>
<line x1="29" y1="404" x2="790" y2="404" stroke="rgb(180,180,180)" stroke-width="1"/>
<line x1="29" y1="352" x2="790" y2="352" stroke="rgb(180,180,180)" stroke-width="1"/>
<line x1="29" y1="299" x2="790" y2="299" stroke="rgb(180,180,180)" stroke-width="1"/>
<line x1="29" y1="247" x2="790" y2="247" stroke="rgb(180,180,180)" stroke-width="1"/>
<line x1="29" y1="195" x2="790" y2="195" stroke="rgb(180,180,180)" stroke-width="1"/>
<line x1="29" y1="143" x2="790" y2="143" stroke="rgb(180,180,180)" stroke-width="1"/>
<line x1="29" y1="91" x2="790" y2="91" stroke="rgb(180,180,180)" stroke-width="1"/>
<line x1="155" y1="560" x2="408" y2="40" stroke="rgb(136,34,85)" stroke-width="1"/>
<line x1="408" y1="40" x2="661" y2="560" stroke="rgb(136,34,85)" stroke-width="1"/>
<rect width="126" height="23" x="664" y="40" style="fill:rgb(255,255,255);stroke:none"/>
<rect width="126" height="23" x="664" y="40" rx="0" ry="0" style="fill:none;stroke-width:1;stroke:rgb(192,192,192)"/>
<text x="667" y="55" fill="rgb(136,34,85)" font-family="Arial" font-size="12" font-weight="bold">Sequence Length</text>
</svg>
